<svg width="38" height="38" viewBox="0 0 38 38" fill="none" xmlns="http://www.w3.org/2000/svg">
<g clip-path="url(#clip0_148_456)">
<path d="M18.5914 0C8.32374 0 0 8.50668 0 19C0 27.9102 6.00279 35.3871 14.1005 37.4406V24.8064H10.2669V19H14.1005V16.4981C14.1005 10.0312 16.9643 7.0338 23.1768 7.0338C24.3547 7.0338 26.3871 7.27016 27.2186 7.50576V12.7688C26.7798 12.7216 26.0175 12.6981 25.0709 12.6981C22.0226 12.6981 20.8447 13.8784 20.8447 16.9465V19H26.9174L25.874 24.8064H20.8447V37.8609C30.0504 36.7247 37.1835 28.7143 37.1835 19C37.1828 8.50668 28.8591 0 18.5914 0Z" fill="white"/>
</g>
<defs>
<clipPath id="clip0_148_456">
<rect width="37.1828" height="38" fill="white"/>
</clipPath>
</defs>
</svg>
