<svg width="38" height="38" viewBox="0 0 38 38" fill="none" xmlns="http://www.w3.org/2000/svg">
<g clip-path="url(#clip0_148_457)">
<path d="M18.7741 3.42148C23.7415 3.42148 24.3298 3.44375 26.2833 3.53281C28.0989 3.61445 29.0793 3.92617 29.7329 4.18594C30.5971 4.52734 31.2217 4.94297 31.868 5.60352C32.5216 6.27148 32.921 6.90234 33.2551 7.78555C33.5093 8.45352 33.8143 9.46289 33.8942 11.3109C33.9813 13.3148 34.0031 13.916 34.0031 18.9852C34.0031 24.0617 33.9813 24.6629 33.8942 26.6594C33.8143 28.5148 33.5093 29.5168 33.2551 30.1848C32.921 31.068 32.5143 31.7063 31.868 32.3668C31.2144 33.0348 30.5971 33.443 29.7329 33.7844C29.0793 34.0441 28.0916 34.3559 26.2833 34.4375C24.3225 34.5266 23.7343 34.5488 18.7741 34.5488C13.8067 34.5488 13.2185 34.5266 11.265 34.4375C9.44939 34.3559 8.46898 34.0441 7.81538 33.7844C6.95117 33.443 6.32662 33.0273 5.68027 32.3668C5.02667 31.6988 4.62725 31.068 4.29318 30.1848C4.039 29.5168 3.73399 28.5074 3.6541 26.6594C3.56695 24.6555 3.54517 24.0543 3.54517 18.9852C3.54517 13.9086 3.56695 13.3074 3.6541 11.3109C3.73399 9.45547 4.039 8.45352 4.29318 7.78555C4.62725 6.90234 5.03393 6.26406 5.68027 5.60352C6.33388 4.93555 6.95117 4.52734 7.81538 4.18594C8.46898 3.92617 9.45665 3.61445 11.265 3.53281C13.2185 3.44375 13.8067 3.42148 18.7741 3.42148ZM18.7741 0C13.7269 0 13.095 0.0222656 11.1124 0.111328C9.13711 0.200391 7.77907 0.526953 6.60258 0.994531C5.37526 1.48438 4.33676 2.13008 3.30551 3.19141C2.26701 4.24531 1.63519 5.30664 1.15588 6.55352C0.69836 7.76328 0.37882 9.14375 0.291673 11.1625C0.204526 13.1961 0.182739 13.8418 0.182739 19C0.182739 24.1582 0.204526 24.8039 0.291673 26.8301C0.37882 28.8488 0.69836 30.2367 1.15588 31.4391C1.63519 32.6934 2.26701 33.7547 3.30551 34.8086C4.33676 35.8625 5.37526 36.5156 6.59532 36.998C7.77907 37.4656 9.12985 37.7922 11.1052 37.8812C13.0878 37.9703 13.7196 37.9926 18.7669 37.9926C23.8141 37.9926 24.446 37.9703 26.4286 37.8812C28.4039 37.7922 29.7619 37.4656 30.9384 36.998C32.1585 36.5156 33.197 35.8625 34.2282 34.8086C35.2595 33.7547 35.8986 32.6934 36.3706 31.4465C36.8281 30.2367 37.1477 28.8563 37.2348 26.8375C37.322 24.8113 37.3438 24.1656 37.3438 19.0074C37.3438 13.8492 37.322 13.2035 37.2348 11.1773C37.1477 9.15859 36.8281 7.7707 36.3706 6.56836C35.9131 5.30664 35.2813 4.24531 34.2428 3.19141C33.2115 2.1375 32.173 1.48438 30.953 1.00195C29.7692 0.534375 28.4184 0.207813 26.4431 0.11875C24.4532 0.0222656 23.8214 0 18.7741 0Z" fill="white"/>
<path d="M18.7741 9.24023C13.5017 9.24023 9.22424 13.6117 9.22424 19C9.22424 24.3883 13.5017 28.7598 18.7741 28.7598C24.0465 28.7598 28.324 24.3883 28.324 19C28.324 13.6117 24.0465 9.24023 18.7741 9.24023ZM18.7741 25.3309C15.3536 25.3309 12.5794 22.4957 12.5794 19C12.5794 15.5043 15.3536 12.6691 18.7741 12.6691C22.1946 12.6691 24.9688 15.5043 24.9688 19C24.9688 22.4957 22.1946 25.3309 18.7741 25.3309Z" fill="white"/>
<path d="M30.9312 8.8542C30.9312 10.1159 29.929 11.1327 28.7017 11.1327C27.4671 11.1327 26.4722 10.1085 26.4722 8.8542C26.4722 7.59248 27.4744 6.57568 28.7017 6.57568C29.929 6.57568 30.9312 7.5999 30.9312 8.8542Z" fill="white"/>
</g>
<defs>
<clipPath id="clip0_148_457">
<rect width="37.1828" height="38" fill="white" transform="translate(0.182739)"/>
</clipPath>
</defs>
</svg>
