<svg xmlns="http://www.w3.org/2000/svg" width="221" height="70" fill="none"><path stroke="#000" stroke-width=".8" d="M73.759 10.133c-1.761.4-4.543-1.2-4.082-4.242.4-2.64 3.441-4.001 4.722-3.921 2.321-.4 5.99 2.24 6.563 5.202.991 5.122-1.36 7.31-2.721 6.963"/><path stroke="#000" stroke-width=".8" d="M72.958 6.692c.8-.987 3.282-2.161 4.642.4 1.334 2.51-.856 4.917-2.64 5.682-.561.24-4.387.529-4.963-.24"/><path fill="#000" d="M197.814 68.64c2.008.54 2.079-1.751.284-1.553-.125.014-.255-.031-.314-.142-.15-.28-.106-.469.016-.591.254-.257.679-.19 1.027-.098.817.217 1.78.79 1.468 1.983-.384 1.473-1.947 1.468-2.801 1.2-1.521-.4-3.121-3.76-4.482-3.44-1.328.312-.455 1.716.188 1.118.077-.071.202-.083.257.006.459.738-.461 1.385-1.165.876-1.441-1.04-.32-3.201 1.44-3.041 1.521.08 2.402 2.801 4.082 3.681ZM205.718 68.568c-2.008.54-2.079-1.75-.284-1.553.125.014.255-.031.314-.141.15-.28.105-.47-.016-.592-.254-.256-.679-.19-1.027-.098-.817.218-1.78.791-1.468 1.984.384 1.472 1.947 1.467 2.801 1.2 1.521-.4 3.121-3.761 4.482-3.441 1.328.312.455 1.716-.188 1.118-.077-.07-.202-.082-.257.006-.459.738.46 1.385 1.165.877 1.441-1.04.32-3.202-1.44-3.042-1.521.08-2.402 2.801-4.082 3.682ZM107.534 37.425l-.035-.006c-.287-.045-1.039.1-1.806.407-.32.08-.961.733-2.561.8-1.477.062-1.788-.72-1.761-1.12.24-1.201 1.726-1.032 2.241-.88 1.347.395 2.695.556 3.887.793a.481.481 0 0 1 .035.007ZM103.562 33.664l-.025.002c-.411.053-2.911 1.239-4.137 1.839-1.28.56-1.76-.24-1.84-.56-.207-.826.71-1.201 1.04-1.201.398 0 3.149.053 4.937-.078a.198.198 0 0 1 .025-.002Z"/><path stroke="#000" stroke-width=".48" d="M88.325 38.546c1.548-1.227 7.043-2.481 16.728-1.44 10.244 1.1 8.644-6.564 5.042-6.244m-15.927 6.964c1.147-4.056 5.362-9.525 11.605-5.603 6.483 4.962-1.28 11.045-3.922 7.363"/><path fill="#000" d="M126.102 47.11c.704-1.153-.507-1.548-1.2-1.6a8.256 8.256 0 0 1-.641-.161c-.56-.24-.4-.64-.32-.8.146-.292.64-.48 1.201-.48 2.081 0 2.369-1.041 2.401-1.201.08-.4.4-1.28-.721-1.76-.56-.241-.426-.775-.08-.881 1.246-.383 2.321-.24 3.602-1.36 2.481-2.562 2.641-2.002 2.641-1.602 0 .264-1.2 3.148-1.841 4.562-.64 2.177.481 2.401 1.521 2.321.8.08.855 1.17-.24 1.121-1.761-.08-2.428.4-2.561.72-1.067 2.481-3.346 8.068-3.922 10.565-.576 2.497 1.841 1.947 3.121 1.36.614-.4 1.857-1.168 1.921-1.04.064.128-1.094 1.12-1.681 1.6-2.561 1.682-3.921 1.442-4.882 1.121-1.28-.48-1.841-1.52-1.68-2.72.255-1.92 2.481-8.325 3.361-9.765ZM75.04 44.309c.191-.32 3.494-.32 5.041-.24 1.041 0 .16 2 .32 2.64.129.513 1.228-.426 1.761-.96 1.708-1.254 5.427-3.265 6.643-1.28 1.217 1.984-.4 2.214-1.36 2.08-2.081-.24-3.362-.24-4.962.48-3.035 1.366-5.416 6.43-6.163 9.205-.4 1.12.17 1.898 1.12 2.32.72.321.64.641.44.641h-7.163c-.96 0-.773-.267-.56-.4.4-.16 1.36-.624 2.001-1.2.8-.72 4.962-11.606 4.482-12.166-.48-.56-1.84-.72-1.6-1.12Z"/><path fill="#000" fill-rule="evenodd" d="M97.613 62.098c-1.039 1.12-2.927 2.8-3.845 2.46-4.267-1.58-9.624-11.972.475-20.092.263-.211.556-.407.858-.558 7.713-3.886 12.87 4.565-2.42 9.91a.568.568 0 0 0-.368.358c-.505 1.706-.726 7.432 5.178 7.654.138.005.216.167.122.268Zm-4.968-9.977c-.64-2.321 2.802-8.164 5.283-7.524 3.441.889-2.001 7.844-5.283 7.524ZM65.355 43.268c-1.494.107-5.202 1.329-8.084 5.362-3.601 5.043-2.48 8.404-1.36 9.605 1.12 1.2 2.64 1.6 4.962 1.44 2.321-.16 4.722-1.92 5.522-2.72l.101-.1c.953-.944 4.147-4.106 4.301-9.345-.16-2.161-1.28-4.37-5.442-4.242Zm-1.28 1.52c-1.601.481-4.93 3.859-5.763 8.405-.832 4.546.88 5.042 2 5.282 2.002.16 3.602-.8 5.363-4.002 1.28-2.24 2.281-5.563 2.001-7.523-.16-1.12-1.2-2.802-3.602-2.161ZM178.016 43.273c-1.494.107-5.202 1.329-8.083 5.363-3.602 5.042-2.481 8.403-1.361 9.604 1.121 1.2 2.641 1.6 4.962 1.44 2.321-.16 4.722-1.92 5.523-2.72l.101-.1c.952-.944 4.147-4.106 4.301-9.345-.16-2.16-1.281-4.37-5.443-4.242Zm-1.28 1.521c-1.601.48-4.93 3.858-5.763 8.404-.832 4.546.881 5.042 2.001 5.282 2.001.16 3.602-.8 5.363-4.002 1.28-2.24 2.281-5.563 2.001-7.523-.161-1.12-1.201-2.801-3.602-2.16Z" clip-rule="evenodd"/><path fill="#000" d="M32.62 38.066c-.288.72-2.4 3.174-3.681 4.162-2.241 1.6-4.082 3.108-8.644 3.361-4.322.24-6.936-2.721-8.164-4.562-3.361-4.562-3.565-12.656-1.92-18.328 1.6-5.523 5.522-10.325 14.726-12.166 7.952-1.59 22.944 3.629 29.533 6.803-3.121 4.002-5.922 3.522-6.563 4.883-.598 1.27.747 2.134 1.441 2.08-1.974 2.775-6.035 8.468-6.483 9.045-.448.576-2.855 1.147-4.002 1.36-1.44.88-1.68 3.042-.72 3.362h2.161c-5.122 10.692-7.203 18.968-6.643 21.85 1.52 1.2 4.002.8 4.002-3.522 0-5.202 5.015-14.94 7.763-19.209l15.767-.24c3.122-.64 2.081-3.121.4-3.121H47.587c.769-2.817 8.057-11.205 11.605-15.047 4.136 1.734 13.687 3.682 18.489.48 5.125-3.417 2.828-8.137 1.2-9.844-3.457-3.073-4.802-.96-3.921.16 2.96 2.961 3.601 5.362.72 6.963-2.882 1.6-17.185-1.92-28.653-6.643-11.468-4.722-18.248-4.518-22.49-3.842-11.045 1.761-19.049 9.124-19.049 22.81 0 13.687 9.365 19.69 14.167 20.09 4.802.4 11.231-4.536 13.606-7.444 3.281-4.322-.352-4.162-.64-3.441Z"/><path fill="#000" d="M48.867 46.39c.577-1.089-.88-1.841-1.68-2.081-.256-.193-.107-.454 0-.56 1.6-.108 4.882-.225 5.202.16.32.383-.027 1.28-.24 1.68-1.147 2.321-3.506 7.523-3.762 9.764-.32 2.802.16 2.482 1.12 2.962.77.384.694.747.561.88-1.92-.026-6.083-.064-7.363 0-1.28.064-.987-.187-.8-.32 1.36-.72 2-1.44 2.64-2.16 1.201-2.989 3.746-9.237 4.322-10.326ZM140.356 46.47c.576-1.089-.88-1.841-1.681-2.081-.256-.193-.106-.454 0-.56 1.601-.107 4.883-.225 5.203.16.32.384-.027 1.28-.24 1.68-1.147 2.321-3.506 7.524-3.762 9.765-.32 2.8.16 2.48 1.121 2.96.768.385.693.748.56.881-1.921-.026-6.083-.064-7.364 0-1.28.064-.987-.187-.8-.32 1.361-.72 2.001-1.44 2.641-2.16 1.201-2.989 3.746-9.237 4.322-10.326ZM49.028 40.467c0-1.473 1.174-1.734 1.76-1.76.385 0 .8.052.96.08 1.922.24 1.922 2.08 1.202 2.88-.523.581-1.575.694-2.242.64-.506 0-1.68-.56-1.68-1.84ZM140.516 40.547c0-1.473 1.174-1.734 1.761-1.76.384 0 .8.052.96.08 1.921.24 1.921 2.08 1.201 2.88-.523.581-1.574.694-2.241.64-.507 0-1.681-.56-1.681-1.84ZM103.612 57.514c1.153-1.088 3.415-8.297 4.402-11.765 0-.8-.8-.8-1.2-1.2-.321-.32-.027-.507.16-.56l4.001.08c.267-.08.753-.033.561.8-.192.832.24.934.48.88 1.409-1.344 3.308-2.054 4.082-2.24 3.201-.833 5.749.919 6.082 1.92.561 1.68-.8 4.162-1.68 5.042-.641.64-4.722 3.042-5.683 3.922-2.161 1.68-1.04 3.041-.48 3.201.939.269 1.521-1.04 3.281-1.68 1.409-.513 2.516-.28 2.882-.08.88.48-.721 2.32-1.601 2.881-.96.56-2.929 1.249-4.722.8-1.793-.448-1.974-2.32-1.841-3.201.08-.774.928-2.801 3.682-4.722 2.753-1.921 2.801-4.109 2.481-4.962-.374-.88-1.713-2.402-4.082-1.441-2.961 1.2-4.802 5.282-6.163 8.884-1.52 4.242-.56 3.922.48 4.562.833.512.347.64 0 .64h-6.803c-1.12 0-.96-.4-.8-.48.48-.16 1.329-.192 2.481-1.28ZM147.505 57.972c1.152-1.088 3.415-8.297 4.402-11.765 0-.8-.8-.8-1.201-1.2-.32-.32-.026-.507.16-.56l4.002.08c.267-.08.753-.033.56.8-.192.832.241.933.481.88 1.408-1.345 3.308-2.054 4.082-2.24 3.201-.833 5.748.919 6.082 1.92.56 1.68-.8 4.162-1.681 5.042-.64.64-4.722 3.041-5.682 3.922-2.161 1.68-1.041 3.041-.48 3.201.939.269 1.52-1.04 3.281-1.68 1.409-.513 2.516-.28 2.881-.08.881.48-.72 2.32-1.6 2.88-.961.561-2.93 1.25-4.722.801-1.793-.448-1.975-2.32-1.841-3.201.08-.774.928-2.801 3.681-4.722 2.754-1.921 2.802-4.109 2.482-4.962-.374-.88-1.713-2.402-4.082-1.441-2.962 1.2-4.802 5.282-6.163 8.884-1.521 4.242-.56 3.922.48 4.562.833.512.347.64 0 .64h-6.803c-1.12 0-.96-.4-.8-.48.48-.16 1.328-.192 2.481-1.28Z"/><path stroke="#000" stroke-width=".48" d="M80.322 44.469c1.92-2.988 8.435-9.3 17.848-9.685 9.412-.384 9.577-5.922 8.483-8.644"/><path stroke="#000" stroke-width=".32" d="M15.573 9.173c-1.2-.48-2.481-2.641-.24-4.082 2.16-1.28 3.841 1.04 2.32 2.08-.88.401-3.009.417-3.52-1.76-.134-1.04.08-3.121 2.64-3.441 2.241-.28 2.962 1.68 1.921 2.32-.56.24-2.513 0-1.68-2.24.426-.694 1.712-1.745 3.44-.4 1.73 1.344 1.308 3.174.881 3.921M6.209 22.139c-1.441.56-3.875-.083-4.002-2.241-.156-2.642 2.56-3.33 4.082-2.722 1.12.449 1.44 2.562-1.12 3.202-1.362.24-4.323-.48-4.163-4.162.24-1.68 1.921-2.961 3.602-2.401 1.12.373 1.035 1.868-.24 2.08-2.401.401-1.921-2.24-1.52-2.96.4-.96 3.12-2.482 5.361.8"/><path fill="#000" d="M69.117 7.892c-1.142 2.094.288 3.857 1.048 4.322a.922.922 0 0 1 .257.218c.177.231.169.213.117.258-.189.161-.338.385-.575.46-.228.072-.426.213-1.007.425-2.492.906-.96 2.881-1.601 2.48-.64-.4-.88-1.36-.88-1.92 0-.56.32-1.2 1.52-1.44.96-.193.72-.721.48-.961-1.728-1.153-1.6-2.374-1.28-2.961.24-.8 2.532-2.001 1.92-.88ZM150.993 24.06c.192.64-.16 1.2-.56 1.52-.384.128-.427.374-.4.48.128.769 1.28.587 1.841.4 1.84-.8.96-3.28.32-3.841-2.193-1.919-4.882.16-5.203.48-.894.895-2.801 6.163 3.042 6.963 3.354.46 5.522-1.04 6.403-2.801 2.561-5.89-.961-8.484-3.042-9.044-1.094-.454-5.122-.8-7.843.72-3.609 2.017-4.402 5.843-4.082 8.644.88 5.522 7.123 9.124 11.605 8.804 6.963-.24 10.085-2.241 11.525-3.361 1.281-.88 7.123-7.764 7.844-8.724 6.723-7.524 9.595-9.222 13.446-10.565 3.441-1.2 8.03-1.04 9.924-.64 5.443 1.04 9.609 5.842 10.325 10.564.96 6.34-3.762 11.525-8.004 12.486-2.321.24-3.761-.32-4.562-.96-.576-.462-1.601-2.402-.4-3.122.96-.576 1.787-.187 2.081.08 1.12 1.6-.794 2.214.08 2.481 2.881.88 4.242-.24 6.163-2.08 1.921-1.842 5.362-8.244-.48-14.087-4.675-4.674-11.392-3.975-14.167-3.041-5.682 1.12-13.406 10.404-15.447 13.366-4.082 5.922-8.964 8.057-9.364 8.243-2.401 1.12-6.003 1.601-10.004 1.44-3.519-.14-7.737-2.827-9.204-4.241-.401-.4-.721-.8-.881-.16-.32 1.28-3.201 3.602-4.802 3.602-1.601 0-2.241-.4-2.721-.88-.48-.481-.4-1.842.24-2.162.59-.295 1.186-.13 1.36.16.241.4-.24.96.241 1.36 2.081.481 2.481-1.76 2.321-3.12-.085-.716-1.053-2.649-.801-6.564.32-4.962 3.175-7.816 4.562-8.803 1.654-1.334 5.683-3.202 10.485-2.001 4.917 1.229 6.083 5.202 6.323 6.322.48 4.162-1.041 6.003-1.841 7.044-1.787 2.323-5.389 2.64-7.523 2.32-4.242-.4-5.593-3.284-5.683-4.721-.24-3.842 2.194-5.11 2.961-5.523 2.081-1.12 6.571-.72 6.884 2.641.32 3.442-2.241 3.682-3.282 3.522-1.152-.177-2.241-1.44-1.841-2.641.534-1.602 1.921-1.36 2.161-.56Z"/><path fill="#000" d="M160.838 22.059c-.705-.96-.187-1.681.16-1.921.88-.4 1.92 0 1.44 1.92-.384 1.537-2.988 2.135-4.242 2.242-5.922-.32-6.803-5.843-5.202-8.244-.768 1.152-3.095 1.014-4.162.8-4.994-1.985-3.095-5.736-1.52-7.363 2.401-2.241 5.922-.72 5.922.64 0 .96-1.2 2.401-2.081 1.44-.692-.755-.293-1.707.16-2.08-1.44-.64-2.161-.16-2.641.16-4.482 3.922.24 6.723 4.322 4.962 7.924-5.602 13.213.34 14.086 2.962.24.72.641.293.721 0 1.088-2.882 3.761-3.655 4.962-3.682 6.163-.24 5.042 5.683 4.082 6.163-.521.26-3.893 2.32-5.283.56-1.2-1.52.481-2.721 1.361-2.161.704.448.507 1.467.32 1.92 4.562.721 3.922-6.082-.32-5.281-3.449.65-5.202 5.175-5.683 7.203-1.76 7.923-5.922 10.042-9.684 10.804-9.156 1.857-13.606-3.12-13.366-6.322l1.681-.56c-.768 6.274 7.47 6.242 11.685 5.442 6.467-1.089 8.164-7.363 8.164-11.125-.4-7.283-6.403-7.523-9.124-6.563-6.723 3.682-1.681 11.525 3.521 9.124.4-.185 1.041-.604.721-1.04Z"/><circle cx="201.656" cy="67.679" r="2.321" fill="#000"/><path stroke="#000" stroke-width=".48" d="M201.336 45.349c.24 6.616.368 19.24-.08 20.009M205.658 45.269c-1.601 1.68-2.241 13.606-2.241 20.009"/><path fill="#000" d="M194.973 54.35c-.171.835.534 2.216.908 2.803-3.101-3.674-3.471 2.247-1.612.883.129-.095.003-.313-.136-.393-.561-.318.202-1.734 1.475-.114l.017.19-.351.032.068.762.527-.046c-.602.994-.83.713-.896.306-.022-.13-.174-.202-.258-.1-.641.781.365 1.708 1.299.165.112.359.07.426-.455 1.225.435.362.761.782.958 1.18.114-.346.543-.955.829-1.178-.447-.242-.702-.962-.775-1.292 1.613 1.969 2.535.527 1.74-.155-.186-.16-.38.063-.448.298-.138.48-.961-.051-1.132-.526l.542-.048-.064-.73-.367.032-.02-.222c1.549-2.676 3.193-.32 1.609-.116-.143.019-.222.192-.11.282.385.312.768.398 1.108.332 1.307-.253 1.128-2.614-.189-2.813-1.081-.164-2.338.836-2.582 1.913-.098-.376.39-1.956.47-2.86.049-.538-.464-1.182-.928-1.629a.418.418 0 0 0-.68.15c-.198.469-.431 1.102-.547 1.67ZM209.85 54.156c.149.84-.59 2.202-.979 2.778 3.193-3.593 3.413 2.335 1.589.924-.127-.098.005-.313.146-.389.569-.304-.158-1.739-1.472-.152l-.022.19.35.04-.086.761-.526-.06c.577 1.01.811.735.888.33.025-.13.178-.199.26-.094.621.797-.408 1.697-1.303.132-.121.355-.081.424.424 1.236a3.71 3.71 0 0 0-.987 1.156c-.106-.35-.519-.97-.799-1.2.452-.23.726-.944.807-1.272-1.662 1.928-2.548.463-1.735-.199.19-.154.378.073.44.31.126.483.962-.027 1.145-.497l-.541-.062.083-.729.366.042.026-.222c-1.481-2.714-3.184-.4-1.606-.156.142.022.217.197.103.284-.393.302-.778.379-1.116.304-1.3-.286-1.061-2.642.26-2.807 1.085-.137 2.316.895 2.533 1.978.107-.373-.34-1.966-.398-2.871-.034-.539.494-1.17.97-1.605a.418.418 0 0 1 .676.167c.185.474.402 1.113.504 1.683Z"/><path stroke="#000" stroke-width=".48" d="M219.024 40.863c3.361-3.678-.881-5.683-1.601-2.321M206.778 39.666c2.962-3.281.4-6.963-1.12-3.521M199.655 39.586c-1.2-1.52.48-4.161 2.001-2.16"/><path stroke="#000" stroke-width=".96" d="M202.856 32.703v6.883"/><path stroke="#000" stroke-width=".48" d="M186.154 40.636c-2.401-3.122.641-4.962 1.441-2.401"/><path fill="#000" d="M188.05 46.15c0 .465-1.468-3.95-2.241-5.683l13.846-1.04c1.867.026 5.843.063 6.803 0 .96-.065 9.097.826 13.046 1.28l-2.961 5.602-11.125-.8h-4.082c-7.924.4-13.286.48-13.286.64Z"/><path stroke="#000" stroke-width=".8" d="M188.21 45.83c2.401 4.241 4.53 15.99 4.402 19.768h18.408c.64-6.723 4.642-19.289 5.443-19.689"/><path stroke="#000" stroke-width=".32" d="M187.65 13.255c.266-.96-.81-3.522-2.161-2.882-1.352.64-.24 2.962 1.68 2.321.934-.24 2.937-1.32 2.081-3.201-.755-1.663-2.581-.756-2.042.495a.868.868 0 0 0 .326.379c2.143 1.393 3.726-4.414-1.085-2.475M201.816 16.216c2.682-.145 2.213-3.114.019-3.136-.474-.005-.911.339-.934.812-.069 1.372 1.833 1.97 3.556.403.66-.6.447-2.518-.947-2.529a.687.687 0 0 0-.639.397c-.487 1.131 1.326 2.14 2.161.878a.708.708 0 0 0 .098-.229c.525-2.313-4.132-3.275-5.155-.758"/><path stroke="#000" stroke-width=".16" d="M19.735 11.654c-.454.56-1.457 2.77-1.2 4.882"/><path stroke="#000" stroke-width=".16" d="M20.935 15.576c-.32-1.068-1.136-3.474-1.52-3.922M17.814 12.694c-.178.408-.96 1.521-.601 3.362"/><circle cx="17.654" cy="16.856" r="1.04" fill="#000" stroke="#000" stroke-width=".16"/><circle cx="18.134" cy="20.858" r=".72" fill="#000" stroke="#000" stroke-width=".16"/><circle cx="18.614" cy="19.898" r=".88" fill="#000" stroke="#000" stroke-width=".16"/><circle cx="19.415" cy="17.016" r=".88" fill="#000" stroke="#000" stroke-width=".16"/><circle cx="18.134" cy="16.536" r=".88" fill="#000" stroke="#000" stroke-width=".16"/><circle cx="17.013" cy="20.058" r=".88" fill="#000" stroke="#000" stroke-width=".16"/><circle cx="14.692" cy="20.298" r=".8" fill="#000" stroke="#000" stroke-width=".16"/><circle cx="15.813" cy="18.697" r=".8" fill="#000" stroke="#000" stroke-width=".16"/><circle cx="20.615" cy="17.416" r=".96" fill="#000" stroke="#000" stroke-width=".16"/><circle cx="19.174" cy="18.217" r=".64" fill="#000" stroke="#000" stroke-width=".16"/><circle cx="21.416" cy="16.296" r=".96" fill="#000" stroke="#000" stroke-width=".16"/><circle cx="21.895" cy="18.537" r=".96" fill="#000" stroke="#000" stroke-width=".16"/><circle cx="22.376" cy="17.416" r=".96" fill="#000" stroke="#000" stroke-width=".16"/><circle cx="23.336" cy="22.539" r=".96" fill="#000" stroke="#000" stroke-width=".16"/><circle cx="22.856" cy="21.898" r=".96" fill="#000" stroke="#000" stroke-width=".16"/><circle cx="14.532" cy="22.859" r=".64" fill="#000" stroke="#000" stroke-width=".16"/><circle cx="14.532" cy="24.3" r=".48" fill="#000" stroke="#000" stroke-width=".16"/><circle cx="14.052" cy="23.659" r=".32" fill="#000" stroke="#000" stroke-width=".16"/><circle cx="15.813" cy="19.818" r=".48" fill="#000" stroke="#000" stroke-width=".16"/><circle cx="16.293" cy="17.416" r=".48" fill="#000" stroke="#000" stroke-width=".16"/><circle cx="15.973" cy="21.258" r=".48" fill="#000" stroke="#000" stroke-width=".16"/><circle cx="16.453" cy="18.377" r=".48" fill="#000" stroke="#000" stroke-width=".16"/><circle cx="20.455" cy="23.019" r=".96" fill="#000" stroke="#000" stroke-width=".16"/><circle cx="21.976" cy="24.22" r=".88" fill="#000" stroke="#000" stroke-width=".16"/><circle cx="23.256" cy="23.899" r=".4" fill="#000" stroke="#000" stroke-width=".16"/><circle cx="21.655" cy="24.54" r=".88" fill="#000" stroke="#000" stroke-width=".16"/><circle cx="22.296" cy="25.18" r="1.361" fill="#000" stroke="#000" stroke-width=".16"/><circle cx="21.576" cy="27.341" r=".96" fill="#000" stroke="#000" stroke-width=".16"/><circle cx="19.655" cy="26.381" r=".8" fill="#000" stroke="#000" stroke-width=".16"/><circle cx="19.815" cy="27.661" r=".8" fill="#000" stroke="#000" stroke-width=".16"/><circle cx="20.375" cy="25.18" r=".72" fill="#000" stroke="#000" stroke-width=".16"/><circle cx="16.293" cy="23.979" r=".96" fill="#000" stroke="#000" stroke-width=".16"/><circle cx="15.893" cy="22.299" r="1.04" fill="#000" stroke="#000" stroke-width=".16"/><circle cx="19.494" cy="21.578" r=".8" fill="#000" stroke="#000" stroke-width=".16"/><circle cx="20.615" cy="20.778" r=".8" fill="#000" stroke="#000" stroke-width=".16"/><circle cx="16.373" cy="27.421" r="1.201" fill="#000" stroke="#000" stroke-width=".16"/><circle cx="18.454" cy="25.5" r="1.04" fill="#000" stroke="#000" stroke-width=".16"/><circle cx="19.254" cy="30.142" r="1.201" fill="#000" stroke="#000" stroke-width=".16"/><circle cx="19.575" cy="28.381" r="1.201" fill="#000" stroke="#000" stroke-width=".16"/><circle cx="16.373" cy="31.423" r="1.201" fill="#000" stroke="#000" stroke-width=".16"/><circle cx="17.093" cy="32.303" r=".8" fill="#000" stroke="#000" stroke-width=".16"/><circle cx="16.453" cy="33.264" r=".64" fill="#000" stroke="#000" stroke-width=".16"/><circle cx="18.214" cy="31.183" r=".64" fill="#000" stroke="#000" stroke-width=".16" transform="rotate(1.688 18.214 31.183)"/><circle cx="15.012" cy="26.381" r=".8" fill="#000" stroke="#000" stroke-width=".16"/><circle cx="15.653" cy="24.78" r=".8" fill="#000" stroke="#000" stroke-width=".16"/><circle cx="19.174" cy="23.819" r=".8" fill="#000" stroke="#000" stroke-width=".16"/><circle cx="18.214" cy="23.179" r=".8" fill="#000" stroke="#000" stroke-width=".16"/><circle cx="17.894" cy="28.461" r=".8" fill="#000" stroke="#000" stroke-width=".16"/><circle cx="14.692" cy="27.981" r=".8" fill="#000" stroke="#000" stroke-width=".16"/><circle cx="14.852" cy="25.42" r=".48" fill="#000" stroke="#000" stroke-width=".16"/><circle cx="14.852" cy="21.258" r=".8" fill="#000" stroke="#000" stroke-width=".16"/><circle cx="15.253" cy="28.862" r=".56" fill="#000" stroke="#000" stroke-width=".16"/><circle cx="15.733" cy="29.982" r=".72" fill="#000" stroke="#000" stroke-width=".16"/><circle cx="19.895" cy="19.417" r=".88" fill="#000" stroke="#000" stroke-width=".16"/><circle cx="22.936" cy="19.577" r="1.201" fill="#000" stroke="#000" stroke-width=".16"/><circle cx="22.376" cy="21.738" r="1.121" fill="#000" stroke="#000" stroke-width=".16"/><path stroke="#000" stroke-width=".32" d="M24.587 10.614c-.16 1.333-.032 4.145 1.761 4.722 1.793.576 3.095-.4 3.522-.96.64-.841.32-2.242-1.36-2.082-1.842.175-2.322 2.481-2.402 3.442-.08.667.208 2.129 2.001 2.64 1.793.513 2.961-.24 3.201-1.2.24-.96-.507-1.72-1.68-1.28-1.28.48-1.521 2.561-1.04 3.681.373.667 1.6 1.841 3.52 1.201 2.402-.8 2.722-4.002.641-5.282"/></svg>