<svg xmlns="http://www.w3.org/2000/svg" width="245" height="78" fill="none"><path stroke="#fff" stroke-width=".887" d="M81.62 11.12c-1.95.444-5.033-1.33-4.522-4.7.443-2.927 3.813-4.434 5.232-4.346 2.572-.443 6.637 2.484 7.272 5.765 1.099 5.676-1.507 8.1-3.015 7.715"/><path stroke="#fff" stroke-width=".887" d="M80.734 7.307c.887-1.094 3.636-2.395 5.144.443 1.477 2.781-.95 5.45-2.927 6.297-.62.266-4.86.585-5.498-.266"/><path fill="#fff" d="M219.081 75.948c2.225.6 2.303-1.94.314-1.72-.138.015-.282-.035-.347-.157-.167-.31-.118-.52.017-.656.281-.284.752-.21 1.138-.108.905.241 1.972.876 1.627 2.198-.426 1.632-2.158 1.626-3.104 1.33-1.685-.443-3.459-4.168-4.966-3.813-1.471.346-.504 1.902.208 1.24.085-.08.224-.092.285.006.508.817-.511 1.535-1.291.97-1.597-1.152-.355-3.547 1.596-3.37 1.685.09 2.66 3.105 4.523 4.08ZM227.838 75.869c-2.225.599-2.303-1.94-.314-1.72.138.015.282-.035.348-.157.166-.31.117-.52-.018-.656-.281-.284-.752-.211-1.138-.108-.905.24-1.972.876-1.627 2.197.426 1.632 2.158 1.626 3.104 1.33 1.685-.443 3.459-4.167 4.966-3.813 1.471.347.504 1.902-.208 1.24-.085-.08-.223-.092-.285.007-.508.817.511 1.534 1.291.97 1.597-1.153.355-3.547-1.596-3.37-1.685.089-2.66 3.104-4.523 4.08ZM119.045 41.361l-.039-.007c-.317-.05-1.151.111-2.001.45-.354.09-1.064.814-2.837.888-1.637.068-1.981-.798-1.951-1.242.266-1.33 1.912-1.143 2.483-.975 1.493.439 2.986.617 4.306.879a.414.414 0 0 1 .039.008ZM114.644 37.193l-.028.002c-.455.06-3.225 1.373-4.583 2.038-1.419.62-1.951-.266-2.04-.62-.229-.915.787-1.331 1.153-1.331.441 0 3.489.059 5.47-.087a.241.241 0 0 1 .028-.002Z"/><path stroke="#fff" stroke-width=".532" d="M97.761 42.603c1.715-1.36 7.804-2.75 18.535-1.596 11.352 1.22 9.578-7.273 5.587-6.918m-17.648 7.716c1.271-4.494 5.942-10.554 12.859-6.208 7.184 5.498-1.419 12.238-4.345 8.159"/><path fill="#fff" d="M139.62 52.092c.78-1.277-.562-1.714-1.33-1.773a9.347 9.347 0 0 1-.71-.178c-.621-.266-.443-.71-.354-.887.161-.323.709-.532 1.33-.532 2.306 0 2.625-1.153 2.66-1.33.089-.443.444-1.419-.798-1.951-.621-.266-.473-.857-.089-.976 1.381-.424 2.572-.266 3.991-1.507 2.749-2.838 2.927-2.217 2.927-1.774 0 .293-1.33 3.488-2.04 5.055-.709 2.412.532 2.66 1.685 2.572.887.089.948 1.297-.266 1.242-1.951-.09-2.69.443-2.838.798-1.182 2.749-3.707 8.939-4.345 11.706-.639 2.767 2.039 2.158 3.458 1.508.68-.444 2.058-1.295 2.129-1.153.071.142-1.212 1.241-1.863 1.773-2.838 1.863-4.345 1.597-5.409 1.242-1.419-.532-2.04-1.685-1.863-3.015.284-2.127 2.749-9.224 3.725-10.82ZM83.04 48.988c.212-.355 3.872-.355 5.587-.266 1.153 0 .177 2.217.354 2.926.142.568 1.36-.473 1.952-1.064 1.891-1.39 6.012-3.618 7.36-1.419 1.348 2.2-.443 2.454-1.507 2.306-2.306-.266-3.725-.266-5.499.532-3.362 1.513-6 7.124-6.829 10.199-.443 1.242.189 2.103 1.242 2.572.798.355.71.71.488.71H78.25c-1.065 0-.858-.296-.621-.444.443-.178 1.508-.692 2.217-1.33.887-.799 5.498-12.86 4.966-13.48-.532-.621-2.04-.799-1.773-1.242Z"/><path fill="#fff" fill-rule="evenodd" d="M108.053 68.7c-1.151 1.24-3.243 3.102-4.261 2.725-4.727-1.75-10.664-13.265.527-22.262a5.45 5.45 0 0 1 .95-.62c8.546-4.304 14.261 5.06-2.681 10.982a.63.63 0 0 0-.408.397c-.56 1.89-.804 8.235 5.737 8.48.153.006.239.186.136.298Zm-5.505-11.055c-.71-2.572 3.104-9.046 5.853-8.337 3.813.984-2.217 8.691-5.853 8.337ZM72.309 47.835c-1.656.118-5.765 1.472-8.957 5.942-3.991 5.587-2.75 9.312-1.508 10.642s2.927 1.774 5.498 1.597c2.572-.178 5.233-2.129 6.12-3.016l.111-.11c1.056-1.046 4.596-4.55 4.766-10.355-.177-2.394-1.419-4.842-6.03-4.7Zm-1.42 1.685c-1.773.532-5.462 4.275-6.384 9.312-.923 5.037.975 5.587 2.217 5.853 2.217.177 3.99-.887 5.942-4.434 1.418-2.483 2.527-6.164 2.217-8.336-.178-1.242-1.33-3.104-3.991-2.395ZM197.144 47.841c-1.656.118-5.765 1.472-8.957 5.942-3.991 5.587-2.749 9.312-1.508 10.642 1.242 1.33 2.927 1.774 5.499 1.596 2.571-.177 5.232-2.128 6.119-3.015l.111-.11c1.056-1.046 4.596-4.55 4.766-10.355-.177-2.394-1.419-4.842-6.03-4.7Zm-1.419 1.685c-1.774.532-5.463 4.275-6.385 9.312-.923 5.037.975 5.587 2.217 5.853 2.217.177 3.991-.887 5.942-4.434 1.419-2.483 2.527-6.164 2.217-8.336-.178-1.242-1.33-3.104-3.991-2.395Z" clip-rule="evenodd"/><path fill="#fff" d="M36.037 42.07c-.32.799-2.66 3.519-4.08 4.612-2.483 1.774-4.522 3.444-9.577 3.725-4.79.266-7.686-3.015-9.046-5.055-3.725-5.055-3.95-14.023-2.128-20.309 1.773-6.119 6.119-11.44 16.317-13.48 8.811-1.762 25.423 4.02 32.725 7.539-3.459 4.434-6.563 3.902-7.272 5.41-.663 1.407.828 2.364 1.596 2.305-2.187 3.075-6.687 9.383-7.183 10.021-.497.639-3.163 1.272-4.434 1.508-1.597.976-1.863 3.37-.799 3.725h2.395c-5.676 11.848-7.982 21.018-7.361 24.21 1.685 1.33 4.434.888 4.434-3.902 0-5.764 5.558-16.554 8.603-21.284l17.47-.266c3.459-.71 2.306-3.459.444-3.459H52.62c.851-3.121 8.928-12.415 12.86-16.672 4.581 1.921 15.164 4.08 20.485.532 5.68-3.786 3.134-9.016 1.33-10.908-3.83-3.406-5.32-1.064-4.345.177 3.281 3.282 3.99 5.942.798 7.716-3.192 1.773-19.042-2.129-31.749-7.361-12.707-5.232-20.22-5.006-24.92-4.257C14.842 8.548 5.973 16.707 5.973 31.872S16.35 53.688 21.67 54.132c5.321.443 12.446-5.026 15.077-8.248 3.636-4.789-.39-4.611-.71-3.813Z"/><path fill="#fff" d="M54.04 51.294c.639-1.206-.976-2.04-1.862-2.306-.284-.213-.119-.502 0-.62 1.773-.119 5.41-.249 5.764.177.355.425-.03 1.419-.266 1.862-1.271 2.572-3.884 8.336-4.168 10.82-.355 3.104.177 2.749 1.241 3.28.852.427.769.829.621.976-2.128-.03-6.74-.07-8.159 0-1.419.071-1.093-.207-.886-.354 1.507-.799 2.216-1.597 2.926-2.395 1.33-3.31 4.15-10.234 4.789-11.44ZM155.414 51.383c.639-1.207-.975-2.04-1.862-2.306-.284-.213-.118-.503 0-.621 1.774-.118 5.41-.248 5.764.177.355.426-.029 1.42-.266 1.863-1.271 2.572-3.884 8.336-4.168 10.82-.355 3.103.177 2.748 1.242 3.28.851.426.768.828.62.976-2.128-.03-6.74-.07-8.158 0-1.419.071-1.094-.207-.887-.355 1.507-.798 2.217-1.596 2.926-2.394 1.331-3.311 4.151-10.234 4.789-11.44ZM54.217 44.731c0-1.632 1.301-1.921 1.951-1.95.426 0 .887.058 1.065.088 2.128.266 2.128 2.306 1.33 3.193-.58.643-1.744.768-2.483.71-.562 0-1.863-.622-1.863-2.04ZM155.592 44.82c0-1.632 1.3-1.921 1.951-1.95a7.4 7.4 0 0 1 1.064.088c2.128.266 2.128 2.306 1.33 3.192-.579.644-1.744.769-2.483.71-.562 0-1.862-.62-1.862-2.04ZM114.7 63.621c1.277-1.206 3.784-9.193 4.877-13.036 0-.887-.886-.887-1.33-1.33-.355-.355-.029-.562.178-.622l4.434.09c.295-.09.833-.036.621.886-.213.922.266 1.035.532.976 1.56-1.49 3.665-2.277 4.523-2.484 3.547-.922 6.37 1.02 6.74 2.129.62 1.862-.887 4.611-1.863 5.587-.709.71-5.232 3.37-6.296 4.346-2.395 1.862-1.153 3.37-.533 3.547 1.041.297 1.685-1.153 3.637-1.863 1.56-.567 2.787-.31 3.192-.088.976.532-.798 2.572-1.774 3.192-1.064.621-3.245 1.384-5.232.887-1.986-.496-2.187-2.572-2.04-3.547.089-.857 1.029-3.104 4.08-5.232 3.051-2.129 3.104-4.553 2.749-5.499-.414-.975-1.898-2.66-4.523-1.596-3.281 1.33-5.321 5.853-6.829 9.844-1.684 4.7-.62 4.345.533 5.055.922.567.384.71 0 .71h-7.539c-1.241 0-1.064-.444-.886-.533.532-.177 1.472-.213 2.749-1.419ZM163.335 64.129c1.277-1.207 3.784-9.194 4.878-13.037 0-.887-.887-.887-1.33-1.33-.355-.355-.03-.562.177-.621l4.434.089c.296-.09.834-.036.621.886-.213.923.266 1.035.532.976 1.561-1.49 3.666-2.276 4.523-2.483 3.547-.923 6.37 1.018 6.74 2.128.621 1.862-.887 4.612-1.862 5.587-.71.71-5.233 3.37-6.297 4.346-2.394 1.862-1.153 3.37-.532 3.547 1.041.298 1.685-1.153 3.636-1.862 1.561-.568 2.787-.31 3.193-.089.975.532-.798 2.572-1.774 3.193-1.064.62-3.246 1.383-5.232.887-1.987-.497-2.188-2.572-2.04-3.548.089-.857 1.029-3.104 4.079-5.232 3.051-2.129 3.104-4.553 2.75-5.499-.414-.975-1.898-2.66-4.523-1.596-3.282 1.33-5.321 5.853-6.829 9.844-1.685 4.7-.621 4.346.532 5.055.922.568.384.71 0 .71h-7.538c-1.242 0-1.064-.444-.887-.533.532-.177 1.472-.212 2.749-1.418Z"/><path stroke="#fff" stroke-width=".532" d="M88.893 49.166c2.128-3.311 9.347-10.305 19.776-10.731 10.43-.426 10.613-6.563 9.401-9.578"/><path stroke="#fff" stroke-width=".355" d="M17.147 10.056c-1.33-.532-2.749-2.927-.266-4.523 2.395-1.419 4.257 1.153 2.572 2.306-.975.443-3.334.461-3.902-1.951-.148-1.153.089-3.459 2.927-3.814 2.483-.31 3.281 1.863 2.128 2.572-.62.266-2.785 0-1.862-2.483.473-.769 1.898-1.933 3.813-.443 1.916 1.49 1.449 3.517.976 4.345M6.771 24.423c-1.596.62-4.293-.091-4.434-2.483-.172-2.927 2.838-3.69 4.523-3.016 1.242.497 1.596 2.838-1.242 3.548-1.507.266-4.788-.533-4.611-4.612.266-1.862 2.128-3.281 3.99-2.66 1.242.413 1.148 2.07-.265 2.305-2.66.444-2.129-2.483-1.685-3.281.443-1.064 3.458-2.75 5.941.887"/><path fill="#fff" d="M76.477 8.637c-1.265 2.32.319 4.273 1.161 4.789.107.066.21.142.285.242.196.256.188.235.13.285-.21.179-.375.427-.637.51-.253.08-.472.236-1.116.47-2.76 1.004-1.065 3.193-1.774 2.75-.71-.444-.976-1.508-.976-2.129 0-.62.355-1.33 1.685-1.596 1.065-.213.799-.798.532-1.064-1.915-1.277-1.773-2.631-1.418-3.282.266-.886 2.805-2.217 2.128-.975ZM167.201 26.551c.213.71-.178 1.33-.621 1.685-.426.142-.473.414-.444.532.142.852 1.419.65 2.04.444 2.04-.887 1.064-3.636.355-4.257-2.429-2.126-5.41.177-5.765.532-.991.992-3.103 6.829 3.37 7.716 3.717.509 6.12-1.153 7.095-3.104 2.838-6.527-1.064-9.4-3.37-10.022-1.212-.502-5.676-.887-8.691.798-3.999 2.235-4.877 6.474-4.523 9.578.976 6.12 7.893 10.11 12.859 9.756 7.716-.266 11.175-2.484 12.771-3.725 1.419-.976 7.893-8.602 8.691-9.667 7.449-8.336 10.632-10.217 14.899-11.706 3.813-1.33 8.898-1.153 10.997-.71 6.03 1.154 10.647 6.474 11.44 11.707 1.064 7.024-4.168 12.77-8.868 13.835-2.572.266-4.169-.355-5.055-1.065-.639-.51-1.774-2.66-.444-3.458 1.064-.639 1.981-.207 2.306.088 1.242 1.774-.88 2.454.089 2.75 3.192.975 4.7-.267 6.828-2.306 2.129-2.04 5.942-9.135-.532-15.609-5.179-5.179-12.623-4.404-15.697-3.37-6.296 1.242-14.854 11.53-17.116 14.81-4.523 6.563-9.932 8.928-10.376 9.135-2.66 1.242-6.651 1.774-11.085 1.596-3.899-.156-8.573-3.133-10.199-4.7-.444-.443-.798-.887-.976-.177-.354 1.419-3.547 3.99-5.321 3.99-1.773 0-2.483-.443-3.015-.975s-.443-2.04.266-2.394c.654-.327 1.314-.146 1.508.177.266.443-.266 1.064.266 1.508 2.306.532 2.749-1.951 2.572-3.46-.094-.792-1.167-2.934-.887-7.271.355-5.499 3.518-8.662 5.055-9.755 1.833-1.479 6.296-3.548 11.617-2.218 5.449 1.363 6.74 5.765 7.006 7.006.533 4.612-1.152 6.652-2.039 7.805-1.98 2.574-5.972 2.926-8.337 2.572-4.7-.444-6.197-3.64-6.296-5.233-.266-4.257 2.431-5.661 3.281-6.119 2.306-1.242 7.281-.798 7.627 2.927.355 3.813-2.483 4.079-3.636 3.902-1.276-.197-2.483-1.597-2.04-2.927.592-1.775 2.129-1.508 2.395-.62Z"/><path fill="#fff" d="M178.109 24.334c-.781-1.064-.207-1.862.177-2.128.976-.444 2.129 0 1.597 2.128-.426 1.703-3.311 2.365-4.701 2.483-6.562-.355-7.538-6.474-5.764-9.134-.852 1.277-3.429 1.123-4.612.887-5.534-2.2-3.429-6.356-1.685-8.16 2.661-2.483 6.563-.798 6.563.71 0 1.064-1.33 2.66-2.306 1.596-.767-.837-.325-1.892.177-2.305-1.596-.71-2.394-.178-2.926.177-4.966 4.345.266 7.45 4.789 5.498 8.78-6.208 14.64.377 15.608 3.282.266.798.71.325.798 0 1.206-3.193 4.169-4.05 5.499-4.08 6.828-.266 5.587 6.297 4.523 6.829-.578.289-4.313 2.572-5.853.62-1.331-1.684.532-3.015 1.507-2.394.781.497.562 1.626.355 2.129 5.055.798 4.345-6.74-.355-5.854-3.822.722-5.764 5.735-6.296 7.982-1.951 8.78-6.563 11.127-10.731 11.972-10.146 2.058-15.076-3.458-14.81-7.006l1.862-.62c-.851 6.952 8.277 6.917 12.948 6.03 7.166-1.206 9.046-8.159 9.046-12.327-.444-8.07-7.095-8.336-10.11-7.272-7.45 4.08-1.863 12.77 3.902 10.11.443-.205 1.153-.67.798-1.153Z"/><circle cx="223.338" cy="74.884" r="2.572" fill="#fff"/><path stroke="#fff" stroke-width=".532" d="M222.983 50.141c.266 7.331.408 21.32-.089 22.171M227.772 50.053c-1.774 1.862-2.483 15.076-2.483 22.17"/><path fill="#fff" d="M215.933 60.115c-.189.925.592 2.456 1.006 3.105-3.436-4.07-3.847 2.49-1.786.978.143-.104.003-.346-.151-.434-.621-.353.224-1.922 1.635-.127l.019.211-.39.035.075.845.584-.052c-.667 1.102-.919.79-.993.34-.023-.145-.192-.225-.285-.111-.71.866.404 1.892 1.439.183.125.397.078.472-.504 1.358.482.4.844.865 1.061 1.307.127-.383.602-1.058.919-1.305-.495-.269-.778-1.067-.858-1.433 1.786 2.182 2.809.585 1.927-.171-.206-.177-.421.07-.496.33-.153.532-1.065-.057-1.255-.582l.602-.054-.072-.81-.407.036-.022-.246c1.716-2.965 3.539-.353 1.783-.127-.158.02-.246.211-.122.312.427.345.851.44 1.228.367 1.448-.28 1.25-2.896-.209-3.117-1.198-.181-2.591.926-2.862 2.12-.108-.416.432-2.168.522-3.17.053-.595-.514-1.309-1.029-1.804a.463.463 0 0 0-.753.166c-.219.52-.478 1.222-.606 1.85ZM232.417 59.9c.165.93-.654 2.44-1.085 3.078 3.539-3.982 3.782 2.588 1.761 1.024-.14-.109.005-.347.162-.431.63-.337-.175-1.927-1.631-.168l-.024.21.388.045-.097.843-.582-.067c.639 1.118.899.814.984.365.027-.144.198-.22.288-.104.688.884-.452 1.881-1.443.147-.135.393-.09.47.469 1.37a4.12 4.12 0 0 0-1.094 1.28c-.117-.387-.574-1.074-.885-1.329.501-.255.805-1.046.894-1.41-1.841 2.136-2.823.513-1.923-.22.211-.172.42.08.489.343.139.535 1.065-.03 1.268-.55l-.6-.07.093-.807.406.046.028-.245c-1.641-3.008-3.529-.444-1.78-.173.158.024.241.218.115.315-.436.334-.862.419-1.237.336-1.441-.317-1.176-2.927.288-3.11 1.202-.152 2.567.991 2.807 2.191.119-.413-.377-2.178-.441-3.181-.038-.597.547-1.296 1.074-1.778a.463.463 0 0 1 .749.185c.206.525.446 1.233.559 1.865Z"/><path stroke="#fff" stroke-width=".532" d="M242.582 45.17c3.725-4.075-.975-6.296-1.774-2.572M229.013 43.845c3.282-3.636.444-7.716-1.241-3.902M221.121 43.756c-1.331-1.685.532-4.612 2.216-2.395"/><path stroke="#fff" stroke-width="1.064" d="M224.668 36.13v7.626"/><path stroke="#fff" stroke-width=".532" d="M206.161 44.919c-2.66-3.459.71-5.499 1.597-2.66"/><path fill="#fff" d="M208.261 51.028c0 .517-1.625-4.375-2.483-6.297l15.343-1.152c2.069.03 6.474.07 7.538 0 1.064-.071 10.08.916 14.455 1.419l-3.281 6.207-12.327-.886h-4.523c-8.78.443-14.722.532-14.722.709Z"/><path stroke="#fff" stroke-width=".887" d="M208.439 50.673c2.66 4.7 5.019 17.72 4.877 21.905h20.398c.709-7.45 5.143-21.373 6.03-21.816"/><path stroke="#fff" stroke-width=".355" d="M207.818 14.579c.296-1.065-.897-3.902-2.395-3.193-1.497.71-.266 3.281 1.863 2.572 1.035-.266 3.253-1.463 2.306-3.547-.838-1.843-2.861-.839-2.263.548a.96.96 0 0 0 .36.42c2.375 1.544 4.129-4.891-1.201-2.742M223.515 17.86c2.972-.16 2.452-3.45.021-3.475-.525-.006-1.009.376-1.035.9-.076 1.52 2.031 2.183 3.941.447.731-.665.495-2.79-1.05-2.803a.762.762 0 0 0-.708.44c-.54 1.253 1.47 2.371 2.395.973a.783.783 0 0 0 .108-.253c.581-2.564-4.579-3.63-5.712-.84"/><path stroke="#fff" stroke-width=".177" d="M21.76 12.805c-.503.621-1.615 3.069-1.331 5.41"/><path stroke="#fff" stroke-width=".177" d="M23.09 17.15c-.355-1.182-1.26-3.848-1.686-4.345M19.63 13.958c-.197.451-1.064 1.685-.665 3.725"/><circle cx="19.453" cy="18.57" r="1.153" fill="#fff" stroke="#fff" stroke-width=".177"/><circle cx="19.985" cy="23.004" r=".798" fill="#fff" stroke="#fff" stroke-width=".177"/><circle cx="20.517" cy="21.939" r=".976" fill="#fff" stroke="#fff" stroke-width=".177"/><circle cx="21.404" cy="18.747" r=".976" fill="#fff" stroke="#fff" stroke-width=".177"/><circle cx="19.985" cy="18.215" r=".976" fill="#fff" stroke="#fff" stroke-width=".177"/><circle cx="18.744" cy="22.117" r=".976" fill="#fff" stroke="#fff" stroke-width=".177"/><circle cx="16.172" cy="22.383" r=".887" fill="#fff" stroke="#fff" stroke-width=".177"/><circle cx="17.413" cy="20.609" r=".887" fill="#fff" stroke="#fff" stroke-width=".177"/><circle cx="22.735" cy="19.19" r="1.064" fill="#fff" stroke="#fff" stroke-width=".177"/><circle cx="21.138" cy="20.077" r=".709" fill="#fff" stroke="#fff" stroke-width=".177"/><circle cx="23.621" cy="17.949" r="1.064" fill="#fff" stroke="#fff" stroke-width=".177"/><circle cx="24.154" cy="20.432" r="1.064" fill="#fff" stroke="#fff" stroke-width=".177"/><circle cx="24.686" cy="19.19" r="1.064" fill="#fff" stroke="#fff" stroke-width=".177"/><circle cx="25.75" cy="24.866" r="1.064" fill="#fff" stroke="#fff" stroke-width=".177"/><circle cx="25.218" cy="24.157" r="1.064" fill="#fff" stroke="#fff" stroke-width=".177"/><circle cx="15.995" cy="25.221" r=".709" fill="#fff" stroke="#fff" stroke-width=".177"/><circle cx="15.995" cy="26.817" r=".532" fill="#fff" stroke="#fff" stroke-width=".177"/><circle cx="15.463" cy="26.108" r=".355" fill="#fff" stroke="#fff" stroke-width=".177"/><circle cx="17.413" cy="21.851" r=".532" fill="#fff" stroke="#fff" stroke-width=".177"/><circle cx="17.946" cy="19.19" r=".532" fill="#fff" stroke="#fff" stroke-width=".177"/><circle cx="17.591" cy="23.447" r=".532" fill="#fff" stroke="#fff" stroke-width=".177"/><circle cx="18.123" cy="20.255" r=".532" fill="#fff" stroke="#fff" stroke-width=".177"/><circle cx="22.557" cy="25.398" r="1.064" fill="#fff" stroke="#fff" stroke-width=".177"/><circle cx="24.242" cy="26.729" r=".976" fill="#fff" stroke="#fff" stroke-width=".177"/><circle cx="25.661" cy="26.374" r=".443" fill="#fff" stroke="#fff" stroke-width=".177"/><circle cx="23.887" cy="27.083" r=".976" fill="#fff" stroke="#fff" stroke-width=".177"/><circle cx="24.597" cy="27.793" r="1.508" fill="#fff" stroke="#fff" stroke-width=".177"/><circle cx="23.799" cy="30.187" r="1.064" fill="#fff" stroke="#fff" stroke-width=".177"/><circle cx="21.67" cy="29.123" r=".887" fill="#fff" stroke="#fff" stroke-width=".177"/><circle cx="21.848" cy="30.542" r=".887" fill="#fff" stroke="#fff" stroke-width=".177"/><circle cx="22.468" cy="27.793" r=".798" fill="#fff" stroke="#fff" stroke-width=".177"/><circle cx="17.946" cy="26.462" r="1.064" fill="#fff" stroke="#fff" stroke-width=".177"/><circle cx="17.502" cy="24.6" r="1.153" fill="#fff" stroke="#fff" stroke-width=".177"/><circle cx="21.493" cy="23.802" r=".887" fill="#fff" stroke="#fff" stroke-width=".177"/><circle cx="22.735" cy="22.915" r=".887" fill="#fff" stroke="#fff" stroke-width=".177"/><circle cx="18.034" cy="30.276" r="1.33" fill="#fff" stroke="#fff" stroke-width=".177"/><circle cx="20.34" cy="28.148" r="1.153" fill="#fff" stroke="#fff" stroke-width=".177"/><circle cx="21.227" cy="33.291" r="1.33" fill="#fff" stroke="#fff" stroke-width=".177"/><circle cx="21.582" cy="31.34" r="1.33" fill="#fff" stroke="#fff" stroke-width=".177"/><circle cx="18.034" cy="34.71" r="1.33" fill="#fff" stroke="#fff" stroke-width=".177"/><circle cx="18.832" cy="35.685" r=".887" fill="#fff" stroke="#fff" stroke-width=".177"/><circle cx="18.123" cy="36.75" r=".709" fill="#fff" stroke="#fff" stroke-width=".177"/><circle cx="20.074" cy="34.444" r=".709" fill="#fff" stroke="#fff" stroke-width=".177" transform="rotate(1.688 20.074 34.444)"/><circle cx="16.527" cy="29.123" r=".887" fill="#fff" stroke="#fff" stroke-width=".177"/><circle cx="17.236" cy="27.349" r=".887" fill="#fff" stroke="#fff" stroke-width=".177"/><circle cx="21.138" cy="26.285" r=".887" fill="#fff" stroke="#fff" stroke-width=".177"/><circle cx="20.074" cy="25.576" r=".887" fill="#fff" stroke="#fff" stroke-width=".177"/><circle cx="19.719" cy="31.429" r=".887" fill="#fff" stroke="#fff" stroke-width=".177"/><circle cx="16.172" cy="30.897" r=".887" fill="#fff" stroke="#fff" stroke-width=".177"/><circle cx="16.349" cy="28.059" r=".532" fill="#fff" stroke="#fff" stroke-width=".177"/><circle cx="16.349" cy="23.447" r=".887" fill="#fff" stroke="#fff" stroke-width=".177"/><circle cx="16.793" cy="31.872" r=".621" fill="#fff" stroke="#fff" stroke-width=".177"/><circle cx="17.325" cy="33.114" r=".798" fill="#fff" stroke="#fff" stroke-width=".177"/><circle cx="21.936" cy="21.407" r=".976" fill="#fff" stroke="#fff" stroke-width=".177"/><circle cx="25.306" cy="21.585" r="1.33" fill="#fff" stroke="#fff" stroke-width=".177"/><circle cx="24.686" cy="23.979" r="1.242" fill="#fff" stroke="#fff" stroke-width=".177"/><path stroke="#fff" stroke-width=".355" d="M27.136 11.652c-.177 1.478-.035 4.594 1.951 5.233 1.987.638 3.43-.444 3.902-1.065.71-.93.355-2.483-1.507-2.305-2.04.194-2.572 2.749-2.66 3.813-.09.74.23 2.36 2.216 2.927 1.987.567 3.281-.266 3.548-1.33.266-1.065-.563-1.907-1.863-1.42-1.419.533-1.685 2.838-1.153 4.08.414.739 1.774 2.04 3.902 1.33 2.661-.887 3.016-4.434.71-5.853"/></svg>
