<svg xmlns="http://www.w3.org/2000/svg" width="99" height="31" fill="none"><path fill="#000" fill-rule="evenodd" d="M34.565 1.247c-.554-.425-1.174-.642-1.622-.565l-.02.003H32.9c-.234-.015-.678.108-1.092.39-.408.277-.753.686-.832 1.212-.093.615.14 1.074.48 1.363.347.297.8.409 1.13.334l.079.349c-.458.104-1.022-.053-1.442-.41-.428-.364-.714-.944-.601-1.69.1-.656.525-1.142.985-1.455.445-.303.955-.466 1.294-.452.587-.092 1.298.19 1.881.637.595.456 1.103 1.117 1.242 1.836.227 1.175.076 2.038-.233 2.596-.303.546-.787.834-1.205.727l.089-.347c.19.049.537-.076.802-.553.258-.466.411-1.238.195-2.355-.117-.606-.558-1.198-1.108-1.62Z" clip-rule="evenodd"/><path fill="#000" fill-rule="evenodd" d="M33.232 2.29a1.334 1.334 0 0 0-.825.441l-.278-.225a1.69 1.69 0 0 1 1.064-.572c.23-.024.474.007.706.132.232.125.438.335.604.647.334.63.223 1.247-.072 1.74a2.7 2.7 0 0 1-1.197 1.051.984.984 0 0 1-.195.052c-.077.014-.17.028-.273.039a7.107 7.107 0 0 1-.71.04 4.306 4.306 0 0 1-.723-.05 1.473 1.473 0 0 1-.298-.079.542.542 0 0 1-.235-.166l.286-.215a.214.214 0 0 0 .083.05c.056.022.132.042.225.058.186.032.42.045.66.043.24-.001.48-.016.673-.037.097-.01.181-.023.247-.035a.712.712 0 0 0 .119-.029 2.343 2.343 0 0 0 1.03-.905c.246-.412.326-.895.064-1.389-.139-.26-.3-.414-.458-.5a.84.84 0 0 0-.497-.09Z" clip-rule="evenodd"/><path fill="#000" d="M88.132 30.336c.899.242.93-.784.127-.695-.055.006-.114-.014-.14-.063-.067-.126-.047-.21.007-.265.113-.115.303-.085.46-.044.365.097.796.354.656.888-.172.658-.871.656-1.253.537-.68-.18-1.397-1.683-2.005-1.54-.594.14-.204.768.084.5.034-.032.09-.037.115.003.205.33-.206.62-.522.392-.644-.465-.143-1.432.645-1.36.68.035 1.074 1.253 1.826 1.647ZM91.668 30.303c-.898.242-.93-.783-.126-.694.055.006.114-.014.14-.063.067-.126.047-.21-.007-.265-.114-.115-.304-.085-.46-.044-.365.097-.796.354-.657.888.172.658.872.656 1.254.537.68-.18 1.396-1.683 2.005-1.54.594.14.204.768-.084.5-.034-.032-.09-.037-.115.003-.205.33.206.62.521.392.645-.465.144-1.432-.644-1.36-.68.035-1.075 1.253-1.827 1.646ZM47.722 16.366c-.128-.02-.465.045-.808.183-.143.035-.43.328-1.145.358-.661.027-.8-.323-.788-.502.107-.537.772-.461 1.002-.394.603.178 1.206.25 1.74.355ZM45.961 14.686l-.011.001c-.184.024-1.303.555-1.851.823-.573.25-.788-.107-.824-.25-.092-.37.318-.538.466-.538.178 0 1.409.024 2.209-.035a.1.1 0 0 1 .011 0Z"/><path fill="#000" fill-rule="evenodd" d="M47.909 16.367a7.31 7.31 0 0 1-1.292-.034c-1.913-.205-3.457-.21-4.642-.104a4.826 4.826 0 0 0-.114.349l-.207-.059c.025-.088.053-.177.084-.267l-.205.023a8.721 8.721 0 0 0-1.505.3c-.39.121-.66.255-.818.38l-.133-.168c.188-.15.486-.292.887-.417a8.921 8.921 0 0 1 1.544-.309c.101-.012.206-.023.314-.034.315-.796.863-1.631 1.615-2.158.458-.32.992-.527 1.594-.538.602-.012 1.264.172 1.976.62l.005.002.004.004c.741.567 1.089 1.178 1.157 1.755.016.142.016.28.001.414 1.164-.15 1.675-.681 1.8-1.191.18-.721-.363-1.459-1.08-1.395l-.02-.214c.894-.08 1.516.826 1.31 1.66-.16.642-.783 1.214-2.048 1.36a2.04 2.04 0 0 1-.451.864c-.342.393-.82.663-1.295.725-.48.063-.96-.087-1.282-.536l.175-.125c.269.374.666.502 1.08.448.417-.054.848-.295 1.16-.653.176-.203.312-.441.386-.702Zm.046-.218c-.375.03-.811.025-1.316-.03-1.867-.2-3.39-.211-4.577-.114.309-.734.82-1.485 1.499-1.96.427-.3.92-.489 1.474-.5.552-.01 1.172.158 1.854.585.706.541 1.01 1.103 1.07 1.607.017.141.014.279-.004.412Z" clip-rule="evenodd"/><path fill="#000" d="M56.046 20.703c.315-.516-.227-.693-.537-.717a3.716 3.716 0 0 1-.287-.071c-.25-.108-.179-.287-.143-.358.066-.131.287-.215.537-.215.931 0 1.06-.466 1.075-.537.035-.18.179-.573-.323-.788-.25-.108-.19-.346-.035-.394.557-.172 1.038-.108 1.611-.609 1.11-1.146 1.182-.895 1.182-.716 0 .118-.537 1.408-.824 2.041-.286.974.215 1.074.68 1.039.359.035.383.523-.107.5-.788-.035-1.086.18-1.146.323-.477 1.11-1.497 3.61-1.755 4.727-.257 1.117.824.872 1.397.609.275-.18.83-.523.86-.466.028.058-.49.502-.753.717-1.145.752-1.754.644-2.184.501-.573-.215-.824-.68-.752-1.218.114-.858 1.11-3.724 1.504-4.369ZM33.199 19.45c.086-.144 1.564-.144 2.256-.108.466 0 .072.895.143 1.181.058.23.55-.19.788-.43.764-.56 2.428-1.46 2.972-.572.545.888-.179.99-.608.93-.931-.107-1.504-.107-2.22.216-1.358.61-2.424 2.877-2.758 4.118-.18.501.076.85.501 1.038.323.144.287.287.197.287h-3.205c-.43 0-.346-.12-.25-.18.179-.07.608-.279.895-.536.358-.323 2.22-5.193 2.005-5.443-.215-.251-.823-.323-.716-.502Z"/><path fill="#000" fill-rule="evenodd" d="M43.3 27.409c-.466.5-1.31 1.253-1.721 1.1-1.91-.707-4.306-5.356.212-8.99.118-.094.25-.181.384-.25 3.451-1.738 5.759 2.044-1.082 4.435a.254.254 0 0 0-.165.16c-.226.764-.325 3.325 2.317 3.425.061.002.096.075.054.12Zm-2.223-4.464c-.287-1.039 1.253-3.653 2.363-3.367 1.54.398-.895 3.51-2.363 3.367ZM28.866 18.984c-.668.047-2.328.594-3.617 2.399-1.611 2.256-1.11 3.76-.609 4.297.502.537 1.182.716 2.22.645 1.04-.072 2.113-.86 2.471-1.218l.046-.044c.426-.423 1.855-1.837 1.924-4.181-.071-.967-.573-1.956-2.435-1.898Zm-.573.68c-.716.215-2.206 1.726-2.578 3.76-.373 2.034.394 2.256.895 2.364.895.071 1.611-.358 2.4-1.79.572-1.004 1.02-2.49.894-3.367-.071-.501-.537-1.253-1.61-.967ZM79.274 18.986c-.668.048-2.328.595-3.617 2.4-1.611 2.255-1.11 3.76-.608 4.297.5.537 1.181.716 2.22.644 1.038-.072 2.112-.86 2.47-1.217l.046-.045c.426-.422 1.855-1.837 1.924-4.181-.071-.967-.573-1.955-2.435-1.898Zm-.573.68c-.716.215-2.206 1.726-2.578 3.76-.373 2.035.394 2.257.895 2.364.895.072 1.611-.358 2.4-1.79.572-1.003 1.02-2.49.895-3.367-.072-.501-.538-1.253-1.612-.967Z" clip-rule="evenodd"/><path fill="#000" d="M14.22 16.656c-.13.322-1.075 1.42-1.648 1.862-1.002.716-1.826 1.39-3.867 1.504-1.934.108-3.104-1.217-3.653-2.041-1.504-2.041-1.595-5.663-.86-8.2.717-2.472 2.472-4.62 6.59-5.444 3.558-.711 10.265 1.624 13.214 3.044-1.397 1.79-2.65 1.576-2.937 2.184-.267.569.335.955.645.932-.883 1.241-2.7 3.788-2.9 4.046-.201.258-1.278.513-1.791.609-.645.394-.752 1.36-.323 1.504h.967c-2.291 4.784-3.223 8.487-2.972 9.776.68.537 1.79.359 1.79-1.575 0-2.328 2.245-6.685 3.474-8.595l7.055-.107c1.396-.287.931-1.397.179-1.397h-6.267c.344-1.26 3.605-5.013 5.193-6.732 1.85.776 6.123 1.647 8.272.215 2.293-1.53 1.265-3.641.537-4.405-1.547-1.375-2.149-.43-1.755.071 1.325 1.325 1.612 2.4.323 3.116-1.29.716-7.69-.86-12.82-2.972-5.132-2.113-8.165-2.022-10.063-1.72C5.66 3.12 2.08 6.415 2.08 12.539c0 6.123 4.19 8.81 6.338 8.988 2.149.18 5.026-2.03 6.088-3.33 1.468-1.934-.158-1.862-.286-1.54Z"/><path fill="#000" d="M21.489 20.38c.258-.487-.394-.823-.752-.93-.115-.087-.048-.204 0-.252.716-.047 2.184-.1 2.328.072.143.172-.012.573-.108.752-.513 1.039-1.568 3.366-1.683 4.369-.143 1.253.072 1.11.502 1.325.343.172.31.334.25.394-.86-.012-2.721-.029-3.294 0s-.442-.084-.358-.143c.608-.323.895-.645 1.181-.967.537-1.337 1.676-4.133 1.934-4.62ZM62.424 20.416c.258-.487-.394-.824-.752-.931-.115-.086-.048-.203 0-.25.716-.048 2.184-.1 2.328.07.143.173-.013.574-.108.753-.513 1.038-1.568 3.366-1.683 4.369-.143 1.253.072 1.11.501 1.325.344.172.31.334.251.394-.86-.012-2.722-.029-3.295 0-.572.028-.441-.084-.358-.143.61-.323.896-.645 1.182-.967.537-1.337 1.676-4.133 1.934-4.62ZM21.56 17.73c0-.659.526-.776.789-.788.171 0 .358.024.43.036.859.108.859.931.536 1.29-.234.26-.704.31-1.002.286-.227 0-.752-.25-.752-.824ZM62.495 17.766c0-.659.526-.776.788-.788.172 0 .358.024.43.036.86.108.86.931.537 1.29-.234.26-.704.31-1.003.286-.226 0-.752-.25-.752-.824ZM45.983 25.358c.516-.487 1.528-3.712 1.97-5.264 0-.358-.358-.358-.537-.537-.143-.144-.012-.227.071-.251l1.79.036c.12-.036.337-.015.252.358-.086.372.107.418.214.394.63-.602 1.48-.92 1.827-1.003 1.432-.372 2.572.412 2.721.86.251.752-.358 1.862-.752 2.256-.286.286-2.113 1.36-2.542 1.754-.967.752-.466 1.361-.215 1.433.42.12.68-.466 1.468-.752.63-.23 1.126-.125 1.29-.036.393.215-.323 1.038-.717 1.29-.43.25-1.31.558-2.113.357-.802-.2-.883-1.038-.823-1.432.035-.346.415-1.254 1.647-2.113 1.232-.86 1.253-1.838 1.11-2.22-.167-.394-.766-1.075-1.826-.645-1.325.537-2.149 2.364-2.758 3.975-.68 1.898-.25 1.755.215 2.041.373.23.155.287 0 .287h-3.044c-.501 0-.43-.18-.358-.215.215-.072.595-.086 1.11-.573ZM65.622 25.563c.516-.487 1.528-3.713 1.97-5.264 0-.358-.358-.358-.537-.537-.144-.144-.012-.227.071-.251l1.79.036c.12-.036.338-.015.252.358-.086.372.107.418.214.394.63-.602 1.48-.92 1.827-1.003 1.432-.372 2.572.411 2.721.86.251.751-.358 1.861-.752 2.256-.286.286-2.112 1.36-2.542 1.754-.967.752-.466 1.361-.215 1.433.42.12.68-.466 1.468-.752.63-.23 1.126-.126 1.29-.036.393.215-.323 1.038-.717 1.289-.43.25-1.31.559-2.113.358-.802-.2-.883-1.038-.823-1.432.035-.346.415-1.254 1.647-2.113 1.232-.86 1.253-1.838 1.11-2.22-.167-.394-.766-1.075-1.826-.645-1.325.537-2.149 2.364-2.758 3.975-.68 1.898-.25 1.755.215 2.041.373.23.155.287 0 .287H64.87c-.501 0-.43-.18-.358-.215.215-.072.595-.086 1.11-.573Z"/><path fill="#000" fill-rule="evenodd" d="M47.3 13.702c-.51.836-1.623 1.506-3.747 1.593-4.167.17-7.054 2.968-7.9 4.284l-.18-.116c.872-1.358 3.815-4.209 8.07-4.383 2.088-.085 3.117-.74 3.574-1.49.46-.755.364-1.64.128-2.23l.199-.08c.252.629.364 1.59-.143 2.422ZM7.301.573c-.088.239-.099.417-.07.547.03.13.1.22.188.28.09.06.198.093.3.102.101.01.187-.002.237-.022.187-.119.224-.36.092-.572-.114-.185-.36-.347-.742-.343a.788.788 0 0 0-.005.008Zm.117-.148c.364.026.62.194.752.408.164.264.13.603-.144.772l-.004.003-.005.002a.671.671 0 0 1-.31.035.79.79 0 0 1-.369-.127.588.588 0 0 1-.246-.366C7.057.998 7.07.807 7.149.575l-.011.002c-.551.068-.84.324-.988.61-.15.29-.16.621-.132.846.013.054.028.104.045.152.092-.121.218-.237.383-.343l.002-.002c.51-.302.978-.184 1.226.09.124.135.193.31.181.485a.625.625 0 0 1-.292.477l-.005.004-.005.002a1.35 1.35 0 0 1-.9.042 1.074 1.074 0 0 1-.598-.449.787.787 0 0 0-.025.468c.08.327.341.604.589.703l-.054.133c-.29-.116-.583-.43-.674-.802a.928.928 0 0 1 .078-.66 1.47 1.47 0 0 1-.091-.271l-.001-.004v-.004c-.032-.24-.023-.606.145-.932C6.194.79 6.525.509 7.12.434c.038-.004.074-.008.11-.01.113-.148.296-.309.537-.383.29-.089.65-.048 1.053.265.404.313.56.687.586 1.028.027.338-.072.64-.174.818l-.124-.07c.09-.157.18-.431.156-.736-.025-.303-.161-.64-.532-.927-.37-.289-.684-.314-.923-.24a.929.929 0 0 0-.391.246ZM6.13 2.338a.933.933 0 0 0 .564.465c.295.091.61.048.793-.033a.48.48 0 0 0 .224-.364.52.52 0 0 0-.144-.38c-.198-.218-.59-.333-1.046-.063-.184.119-.31.246-.39.375ZM1.247 5.14a.746.746 0 0 0-.283.3l-.001.003-.002.003c-.038.068-.08.184-.108.322.26-.108.557-.13.856-.03.281.093.418.333.396.566-.02.235-.2.45-.515.503-.28.047-.49.007-.638-.098a.659.659 0 0 1-.254-.434 1.212 1.212 0 0 1-.018-.25 1.281 1.281 0 0 0-.534.861c-.026.622.15 1.042.408 1.32.067-.438.33-.732.657-.897.399-.2.894-.21 1.253-.066.284.114.461.434.412.761-.05.334-.33.66-.922.807l-.005.002a1.772 1.772 0 0 1-1.267-.304l.001.014c.027.451.293.744.633.896a1.44 1.44 0 0 0 1.06.044l.052.133a1.582 1.582 0 0 1-1.17-.046C.877 9.38.57 9.045.54 8.53a1.675 1.675 0 0 1-.002-.14C.205 8.086-.03 7.603.003 6.877V6.87a1.43 1.43 0 0 1 .691-1.024 1.382 1.382 0 0 1 .14-.466.889.889 0 0 1 .334-.36 1.35 1.35 0 0 1 .614-.213c.483-.043 1.061.17 1.574.922l-.118.081c-.49-.717-1.021-.897-1.443-.86a1.207 1.207 0 0 0-.548.19ZM.684 8.329a1.63 1.63 0 0 0 1.238.343c.552-.139.773-.43.812-.69.04-.266-.105-.52-.323-.606a1.459 1.459 0 0 0-1.135.061c-.314.157-.56.444-.592.892Zm.144-2.392c-.01.105-.008.213.01.312a.517.517 0 0 0 .197.343c.108.076.275.117.532.074.255-.043.38-.21.396-.375.015-.166-.08-.344-.3-.418a1.081 1.081 0 0 0-.835.064Z" clip-rule="evenodd"/><path fill="#000" d="M30.55 3.155c-.512.937.128 1.726.468 1.934a.412.412 0 0 1 .115.098c.08.103.076.095.052.115-.084.072-.15.173-.257.206-.102.032-.19.095-.45.19-1.115.405-.43 1.29-.717 1.11-.286-.179-.394-.609-.394-.86 0-.25.144-.537.68-.644.43-.086.323-.322.216-.43-.774-.515-.717-1.062-.573-1.325.107-.358 1.133-.895.86-.394ZM67.183 10.39c.086.286-.072.536-.25.68-.173.057-.192.167-.18.214.058.344.573.263.824.18.824-.359.43-1.469.143-1.72-.98-.858-2.184.072-2.327.215-.4.4-1.254 2.758 1.36 3.116 1.501.206 2.471-.466 2.865-1.253 1.146-2.636-.43-3.796-1.36-4.047-.49-.203-2.292-.358-3.51.322-1.615.903-1.97 2.614-1.826 3.868.394 2.47 3.187 4.082 5.192 3.939 3.116-.107 4.512-1.003 5.157-1.504.573-.394 3.187-3.474 3.51-3.903 3.007-3.367 4.292-4.126 6.015-4.727 1.54-.538 3.593-.466 4.44-.287 2.436.466 4.3 2.614 4.62 4.727.43 2.836-1.683 5.157-3.58 5.586-1.04.108-1.684-.143-2.042-.43-.258-.205-.716-1.073-.179-1.396.43-.258.8-.083.931.036.502.716-.355.99.036 1.11 1.29.394 1.898-.107 2.757-.931.86-.824 2.4-3.688-.214-6.303-2.092-2.09-5.097-1.778-6.339-1.36-2.542.501-5.998 4.655-6.911 5.98-1.827 2.65-4.011 3.605-4.19 3.688-1.074.502-2.686.717-4.476.645-1.575-.063-3.462-1.265-4.119-1.898-.179-.179-.322-.358-.394-.072-.143.573-1.432 1.612-2.148 1.612-.716 0-1.003-.18-1.218-.394-.215-.215-.179-.824.108-.967.264-.132.53-.059.608.072.108.179-.107.43.108.608.931.215 1.11-.787 1.038-1.396-.037-.32-.47-1.185-.358-2.937.144-2.22 1.42-3.497 2.041-3.939.74-.597 2.543-1.432 4.692-.895 2.2.55 2.721 2.328 2.829 2.83.215 1.861-.466 2.685-.824 3.15-.8 1.04-2.411 1.182-3.366 1.039-1.898-.18-2.502-1.47-2.543-2.113-.107-1.719.982-2.286 1.325-2.47.931-.502 2.94-.323 3.08 1.18.143 1.54-1.003 1.648-1.468 1.577-.516-.08-1.003-.645-.824-1.182.24-.717.86-.609.967-.25Z"/><path fill="#000" d="M71.588 9.494c-.315-.43-.084-.752.071-.86.394-.179.86 0 .645.86-.172.687-1.337.955-1.898 1.003-2.65-.144-3.044-2.615-2.328-3.689-.343.516-1.384.454-1.862.358-2.234-.888-1.384-2.566-.68-3.294 1.074-1.003 2.65-.323 2.65.286 0 .43-.537 1.074-.931.645-.31-.338-.132-.764.071-.931-.644-.287-.966-.072-1.181.071-2.006 1.755.107 3.008 1.933 2.22 3.546-2.506 5.912.153 6.303 1.326.107.322.287.13.322 0a2.534 2.534 0 0 1 2.22-1.648c2.758-.107 2.257 2.543 1.827 2.758-.233.116-1.742 1.038-2.364.25-.537-.68.215-1.217.61-.967.314.201.226.657.142.86 2.042.322 1.755-2.722-.143-2.364-1.543.292-2.328 2.316-2.542 3.223-.788 3.546-2.65 4.493-4.333 4.835-4.097.83-6.088-1.397-5.98-2.83l.751-.25c-.344 2.808 3.343 2.793 5.229 2.435 2.893-.487 3.652-3.294 3.652-4.978-.179-3.258-2.865-3.366-4.082-2.936-3.008 1.647-.752 5.157 1.576 4.082.179-.082.465-.27.322-.465ZM90.89 29.906a1.038 1.038 0 1 1-2.077 0 1.038 1.038 0 0 1 2.077 0Z"/><path fill="#000" fill-rule="evenodd" d="M89.698 25.372a172.823 172.823 0 0 0-.097-5.453l.214-.008c.054 1.481.095 3.635.098 5.461.001.913-.007 1.745-.028 2.371a14.6 14.6 0 0 1-.042.772c-.01.098-.02.18-.03.246a.52.52 0 0 1-.048.16l-.186-.108c0-.001.004-.008.008-.022a.752.752 0 0 0 .014-.067c.01-.057.019-.133.028-.228.017-.19.03-.449.041-.76.021-.622.03-1.451.028-2.364ZM91.291 20.327c.078-.226.166-.41.273-.522l.155.148c-.072.076-.15.223-.224.444a6.427 6.427 0 0 0-.207.816c-.126.645-.229 1.468-.31 2.36a63.528 63.528 0 0 0-.232 5.258h-.215c0-1.435.072-3.488.234-5.278.08-.894.184-1.726.312-2.381.065-.328.136-.615.214-.845Z" clip-rule="evenodd"/><path fill="#000" d="M86.861 23.942c-.076.374.239.992.406 1.254-1.387-1.644-1.553 1.006-.721.395.058-.042.001-.14-.06-.175-.252-.143.09-.776.66-.052l.007.086-.157.014.03.34.236-.02c-.27.445-.372.32-.401.137-.01-.058-.078-.09-.115-.045-.287.35.163.764.58.074.051.16.032.19-.203.548.195.162.34.35.429.528.05-.154.243-.427.37-.527-.2-.108-.313-.43-.346-.578.722.881 1.134.236.779-.07-.084-.07-.17.029-.201.134-.062.215-.43-.023-.507-.235l.243-.022-.029-.327-.164.015-.009-.1c.693-1.197 1.429-.142.72-.051-.064.008-.1.085-.05.126.173.14.345.178.497.148.584-.113.504-1.17-.085-1.258-.484-.074-1.046.374-1.155.856-.044-.169.174-.876.21-1.28.022-.24-.207-.529-.415-.729a.187.187 0 0 0-.304.067c-.089.21-.193.494-.245.747ZM93.517 23.855c.067.376-.264.985-.438 1.243 1.43-1.608 1.528 1.045.711.414-.056-.044.002-.14.066-.174.254-.136-.071-.779-.659-.068l-.01.085.157.018-.039.34-.235-.027c.258.452.363.329.397.148.011-.059.08-.09.117-.042.277.356-.183.76-.583.059-.055.159-.036.19.19.553-.2.157-.35.34-.442.517a1.482 1.482 0 0 0-.358-.537c.203-.103.325-.422.361-.569-.743.863-1.14.207-.776-.089.085-.07.17.033.197.139.056.216.43-.012.512-.223l-.242-.027.037-.327.164.02.011-.1c-.662-1.215-1.424-.179-.718-.07.064.01.097.088.046.127-.176.135-.348.17-.5.136-.58-.128-.474-1.182.117-1.256.486-.06 1.037.4 1.134.885.047-.167-.153-.88-.179-1.285-.015-.24.221-.523.434-.718a.187.187 0 0 1 .303.075c.083.212.18.498.225.753Z"/><path fill="#000" fill-rule="evenodd" d="M98.083 16.83c-.026.26-.174.604-.54 1.005l.158.145c.386-.422.564-.808.596-1.13.032-.324-.087-.583-.284-.73a.657.657 0 0 0-.697-.05c-.235.12-.43.378-.515.776l.21.046c.076-.354.24-.548.403-.63a.442.442 0 0 1 .47.032c.13.095.224.276.199.535ZM92.74 15.407c.231.453.167 1.28-.517 2.037l-.16-.144c.641-.71.666-1.442.486-1.795-.09-.176-.216-.239-.333-.213-.13.028-.31.173-.476.548l-.197-.087c.175-.395.394-.621.628-.671.247-.054.453.099.569.325ZM89.032 16.327a.792.792 0 0 0 .008.943l-.168.133a1.006 1.006 0 0 1-.01-1.206.601.601 0 0 1 .49-.257c.201.005.403.125.585.365l-.171.13c-.159-.209-.306-.277-.42-.28-.115-.004-.226.057-.314.172ZM90.173 17.336v-3.08h.43v3.08h-.43ZM82.774 16.393c-.191.182-.296.668.227 1.347l-.17.131c-.553-.717-.514-1.34-.204-1.634a.536.536 0 0 1 .569-.118c.2.078.37.273.466.58l-.205.065c-.083-.266-.217-.397-.339-.444a.32.32 0 0 0-.344.073Z" clip-rule="evenodd"/><path fill="#000" d="M83.763 20.273c0 .208-.656-1.767-1.002-2.543l6.195-.465c.835.012 2.614.028 3.044 0 .43-.029 4.07.37 5.837.573l-1.325 2.506-4.978-.358h-1.826c-3.545.18-5.945.215-5.945.287Z"/><path fill="#000" fill-rule="evenodd" d="M95.403 23.56c-.527 1.8-1.042 3.945-1.184 5.432l-.015.162h-8.585l.007-.185c.027-.823-.192-2.542-.557-4.303-.365-1.762-.868-3.526-1.39-4.448l.312-.177c.552.976 1.063 2.79 1.428 4.553.342 1.647.563 3.285.567 4.202h7.893c.165-1.511.67-3.594 1.18-5.337.266-.905.533-1.723.758-2.327.112-.302.215-.553.302-.737.043-.091.084-.17.123-.23.019-.03.04-.06.061-.085a.309.309 0 0 1 .093-.075l.16.32a.09.09 0 0 0 .02-.012l-.002.002a.36.36 0 0 0-.03.042 1.853 1.853 0 0 0-.102.192c-.08.17-.179.41-.29.708-.22.594-.485 1.403-.749 2.302ZM83.882 4.43a.605.605 0 0 1-.389-.107.46.46 0 0 1-.172-.201.501.501 0 0 1 .28-.696.527.527 0 0 1 .411.023.75.75 0 0 1 .337.358.835.835 0 0 0 .036-.194c.013-.213-.063-.404-.252-.5-.193-.097-.528-.105-1.06.109l-.053-.133c.545-.22.93-.229 1.178-.103.255.129.345.385.33.636a1.01 1.01 0 0 1-.102.38c.047.162.05.312.02.45a.98.98 0 0 1-.26.46c-.151.16-.344.28-.52.36a.803.803 0 0 1-.013.302l-.138-.038a.61.61 0 0 0 .013-.207c-.05.018-.096.033-.138.044-.463.153-.835-.05-1.007-.336a.667.667 0 0 1-.094-.461.513.513 0 0 1 .298-.375.507.507 0 0 1 .49.023c.142.082.263.223.357.381a1.834 1.834 0 0 1 .207.521 1.55 1.55 0 0 0 .442-.312.838.838 0 0 0 .222-.394.714.714 0 0 0 .011-.244.804.804 0 0 1-.106.11.59.59 0 0 1-.328.144Zm.389-.441a.717.717 0 0 1-.154.187.448.448 0 0 1-.248.111.463.463 0 0 1-.298-.084.316.316 0 0 1-.118-.138c-.104-.24.018-.439.198-.504a.384.384 0 0 1 .3.017c.102.05.205.15.284.323.014.03.025.059.036.088Zm-.764 1.195a1.686 1.686 0 0 0-.196-.506.917.917 0 0 0-.306-.33.364.364 0 0 0-.357-.018.37.37 0 0 0-.219.272.525.525 0 0 0 .077.36c.14.234.445.406.84.274l.005-.001c.047-.012.1-.03.156-.05ZM91.259 4.658a.742.742 0 0 1 .216.715.385.385 0 0 1-.053.126.742.742 0 0 1-.086.107.886.886 0 0 1-.015.138.592.592 0 0 1-.168.33c-.114.102-.23.186-.345.251a.672.672 0 0 1-.189.36c-.149.15-.38.25-.692.266l-.008-.143c.287-.015.48-.106.599-.224a.537.537 0 0 0 .117-.174c-.229.094-.45.119-.64.084-.334-.062-.57-.31-.553-.658.013-.257.247-.434.49-.431a.99.99 0 0 1 .436.1.484.484 0 0 1-.039-.467.379.379 0 0 1 .352-.22c.354.002.555.25.626.52a.865.865 0 0 1 .012.052.242.242 0 0 0 .017-.049.6.6 0 0 0-.178-.581c-.157-.156-.395-.267-.658-.313-.532-.093-1.124.079-1.335.598l-.132-.054c.247-.608.926-.784 1.491-.685.285.05.553.17.735.352Zm-.066.885a.798.798 0 0 0-.025-.17c-.06-.227-.218-.41-.488-.413a.235.235 0 0 0-.22.134c-.088.207.028.41.227.506.156.074.35.073.506-.057Zm-.014.182a.614.614 0 0 1-.521.018.766.766 0 0 1 .159.41c.08-.052.16-.113.24-.186a.448.448 0 0 0 .122-.242Zm-.505.51a.55.55 0 0 0 0-.072c-.023-.303-.288-.61-.744-.615-.18-.002-.337.13-.345.295-.013.266.16.46.436.51.183.033.412.003.653-.119ZM8.032 5.66c.124-.4.289-.714.394-.844l.056.045c-.098.12-.259.425-.381.82-.123.393-.205.872-.149 1.338l-.07.008c-.059-.479.026-.968.15-1.367Z" clip-rule="evenodd"/><path fill="#000" fill-rule="evenodd" d="M8.695 5.6c.131.354.259.744.33.983l-.068.02a18.264 18.264 0 0 0-.329-.979 8.408 8.408 0 0 0-.191-.48 1.355 1.355 0 0 0-.153-.282l.054-.047c.047.055.104.165.164.3.061.138.128.307.193.485ZM7.517 5.38l.045-.09.065.028a1.79 1.79 0 0 1-.046.095c-.12.233-.356.69-.22 1.388l-.07.014c-.142-.725.107-1.205.226-1.436Z" clip-rule="evenodd"/><path fill="#000" d="M8.024 7.166a.501.501 0 1 1-1.002 0 .501.501 0 0 1 1.002 0Z"/><path fill="#000" fill-rule="evenodd" d="M7.523 7.596a.43.43 0 1 0 0-.86.43.43 0 0 0 0 .86Zm0 .072a.501.501 0 1 0 0-1.003.501.501 0 0 0 0 1.003Z" clip-rule="evenodd"/><path fill="#000" d="M8.096 8.957a.358.358 0 1 1-.716 0 .358.358 0 0 1 .716 0Z"/><path fill="#000" fill-rule="evenodd" d="M7.738 9.243a.286.286 0 1 0 0-.573.286.286 0 0 0 0 .573Zm0 .072a.358.358 0 1 0 0-.716.358.358 0 0 0 0 .716Z" clip-rule="evenodd"/><path fill="#000" d="M8.382 8.527a.43.43 0 1 1-.859 0 .43.43 0 0 1 .86 0Z"/><path fill="#000" fill-rule="evenodd" d="M7.953 8.885a.358.358 0 1 0 0-.716.358.358 0 0 0 0 .716Zm0 .072a.43.43 0 1 0 0-.86.43.43 0 0 0 0 .86Z" clip-rule="evenodd"/><path fill="#000" d="M8.74 7.238a.43.43 0 1 1-.859 0 .43.43 0 0 1 .86 0Z"/><path fill="#000" fill-rule="evenodd" d="M8.31 7.596a.358.358 0 1 0 0-.716.358.358 0 0 0 0 .716Zm0 .072a.43.43 0 1 0 0-.86.43.43 0 0 0 0 .86Z" clip-rule="evenodd"/><path fill="#000" d="M8.168 7.023a.43.43 0 1 1-.86 0 .43.43 0 0 1 .86 0Z"/><path fill="#000" fill-rule="evenodd" d="M7.738 7.381a.358.358 0 1 0 0-.716.358.358 0 0 0 0 .716Zm0 .072a.43.43 0 1 0 0-.86.43.43 0 0 0 0 .86Z" clip-rule="evenodd"/><path fill="#000" d="M7.666 8.599a.43.43 0 1 1-.86 0 .43.43 0 0 1 .86 0Z"/><path fill="#000" fill-rule="evenodd" d="M7.236 8.957a.358.358 0 1 0 0-.716.358.358 0 0 0 0 .716Zm0 .071a.43.43 0 1 0 0-.86.43.43 0 0 0 0 .86Z" clip-rule="evenodd"/><path fill="#000" d="M6.592 8.706a.394.394 0 1 1-.788 0 .394.394 0 0 1 .788 0Z"/><path fill="#000" fill-rule="evenodd" d="M6.198 9.028a.322.322 0 1 0 0-.644.322.322 0 0 0 0 .644Zm0 .072a.394.394 0 1 0 0-.788.394.394 0 0 0 0 .788Z" clip-rule="evenodd"/><path fill="#000" d="M7.093 7.99a.394.394 0 1 1-.788 0 .394.394 0 0 1 .788 0Z"/><path fill="#000" fill-rule="evenodd" d="M6.7 8.312a.322.322 0 1 0 0-.644.322.322 0 0 0 0 .644Zm0 .072a.394.394 0 1 0 0-.788.394.394 0 0 0 0 .788Z" clip-rule="evenodd"/><path fill="#000" d="M9.313 7.417a.466.466 0 1 1-.93 0 .466.466 0 0 1 .93 0Z"/><path fill="#000" fill-rule="evenodd" d="M8.848 7.81a.394.394 0 1 0 0-.787.394.394 0 0 0 0 .788Zm0 .072a.466.466 0 1 0 0-.93.466.466 0 0 0 0 .93Z" clip-rule="evenodd"/><path fill="#000" d="M8.526 7.775a.322.322 0 1 1-.645 0 .322.322 0 0 1 .645 0Z"/><path fill="#000" fill-rule="evenodd" d="M8.203 8.026a.25.25 0 1 0 0-.502.25.25 0 0 0 0 .502Zm0 .071a.322.322 0 1 0 0-.644.322.322 0 0 0 0 .644Z" clip-rule="evenodd"/><path fill="#000" d="M9.672 6.916a.466.466 0 1 1-.931 0 .466.466 0 0 1 .93 0Z"/><path fill="#000" fill-rule="evenodd" d="M9.206 7.31a.394.394 0 1 0 0-.788.394.394 0 0 0 0 .787Zm0 .071a.466.466 0 1 0 0-.931.466.466 0 0 0 0 .931Z" clip-rule="evenodd"/><path fill="#000" d="M9.886 7.918a.466.466 0 1 1-.93 0 .466.466 0 0 1 .93 0Z"/><path fill="#000" fill-rule="evenodd" d="M9.42 8.312a.394.394 0 1 0 0-.788.394.394 0 0 0 0 .788Zm0 .072a.466.466 0 1 0 0-.931.466.466 0 0 0 0 .93Z" clip-rule="evenodd"/><path fill="#000" d="M10.101 7.417a.465.465 0 1 1-.93 0 .465.465 0 0 1 .93 0Z"/><path fill="#000" fill-rule="evenodd" d="M9.636 7.81a.394.394 0 1 0 0-.787.394.394 0 0 0 0 .788Zm0 .072a.465.465 0 1 0 0-.93.465.465 0 0 0 0 .93Z" clip-rule="evenodd"/><path fill="#000" d="M10.531 9.709a.466.466 0 1 1-.931 0 .466.466 0 0 1 .931 0Z"/><path fill="#000" fill-rule="evenodd" d="M10.066 10.103a.394.394 0 1 0 0-.788.394.394 0 0 0 0 .788Zm0 .071a.466.466 0 1 0 0-.93.466.466 0 0 0 0 .93Z" clip-rule="evenodd"/><path fill="#000" d="M10.316 9.422a.466.466 0 1 1-.931 0 .466.466 0 0 1 .931 0Z"/><path fill="#000" fill-rule="evenodd" d="M9.85 9.816a.394.394 0 1 0 0-.788.394.394 0 0 0 0 .788Zm0 .072a.466.466 0 1 0 0-.931.466.466 0 0 0 0 .93Z" clip-rule="evenodd"/><path fill="#000" d="M6.449 9.852a.322.322 0 1 1-.645 0 .322.322 0 0 1 .645 0Z"/><path fill="#000" fill-rule="evenodd" d="M6.126 10.103a.25.25 0 1 0 0-.502.25.25 0 0 0 0 .502Zm0 .071a.322.322 0 1 0 0-.644.322.322 0 0 0 0 .644Z" clip-rule="evenodd"/><path fill="#000" d="M6.377 10.497a.25.25 0 1 1-.501 0 .25.25 0 0 1 .501 0Z"/><path fill="#000" fill-rule="evenodd" d="M6.126 10.676a.179.179 0 1 0 0-.358.179.179 0 0 0 0 .358Zm0 .071a.25.25 0 1 0 0-.501.25.25 0 0 0 0 .501Z" clip-rule="evenodd"/><path fill="#000" d="M6.09 10.21a.18.18 0 1 1-.358 0 .18.18 0 0 1 .359 0Z"/><path fill="#000" fill-rule="evenodd" d="M5.911 10.318a.107.107 0 1 0 0-.215.107.107 0 0 0 0 .215Zm0 .071a.18.18 0 1 0 0-.358.18.18 0 0 0 0 .358Z" clip-rule="evenodd"/><path fill="#000" d="M6.95 8.491a.25.25 0 1 1-.501 0 .25.25 0 0 1 .5 0Z"/><path fill="#000" fill-rule="evenodd" d="M6.7 8.67a.18.18 0 1 0 0-.358.18.18 0 0 0 0 .358Zm0 .072a.25.25 0 1 0 0-.501.25.25 0 0 0 0 .5Z" clip-rule="evenodd"/><path fill="#000" d="M7.165 7.417a.25.25 0 1 1-.501 0 .25.25 0 0 1 .5 0Z"/><path fill="#000" fill-rule="evenodd" d="M6.914 7.596a.18.18 0 1 0 0-.358.18.18 0 0 0 0 .358Zm0 .072a.25.25 0 1 0 0-.502.25.25 0 0 0 0 .502Z" clip-rule="evenodd"/><path fill="#000" d="M7.022 9.136a.25.25 0 1 1-.502 0 .25.25 0 0 1 .502 0Z"/><path fill="#000" fill-rule="evenodd" d="M6.771 9.315a.18.18 0 1 0 0-.358.18.18 0 0 0 0 .358Zm0 .071a.25.25 0 1 0 0-.5.25.25 0 0 0 0 .5Z" clip-rule="evenodd"/><path fill="#000" d="M7.237 7.847a.25.25 0 1 1-.502 0 .25.25 0 0 1 .502 0Z"/><path fill="#000" fill-rule="evenodd" d="M6.986 8.026a.18.18 0 1 0 0-.358.18.18 0 0 0 0 .358Zm0 .071a.25.25 0 1 0 0-.501.25.25 0 0 0 0 .501Z" clip-rule="evenodd"/><path fill="#000" d="M9.242 9.924a.466.466 0 1 1-.931 0 .466.466 0 0 1 .93 0Z"/><path fill="#000" fill-rule="evenodd" d="M8.776 10.318a.394.394 0 1 0 0-.788.394.394 0 0 0 0 .788Zm0 .071a.466.466 0 1 0 0-.93.466.466 0 0 0 0 .93Z" clip-rule="evenodd"/><path fill="#000" d="M9.886 10.46a.43.43 0 1 1-.859 0 .43.43 0 0 1 .86 0Z"/><path fill="#000" fill-rule="evenodd" d="M9.457 10.819a.358.358 0 1 0 0-.716.358.358 0 0 0 0 .716Zm0 .071a.43.43 0 1 0 0-.859.43.43 0 0 0 0 .86Z" clip-rule="evenodd"/><path fill="#000" d="M10.245 10.318a.215.215 0 1 1-.43 0 .215.215 0 0 1 .43 0Z"/><path fill="#000" fill-rule="evenodd" d="M10.03 10.46a.143.143 0 1 0 0-.286.143.143 0 0 0 0 .287Zm0 .072a.215.215 0 1 0 0-.43.215.215 0 0 0 0 .43Z" clip-rule="evenodd"/><path fill="#000" d="M9.743 10.604a.43.43 0 1 1-.86 0 .43.43 0 0 1 .86 0Z"/><path fill="#000" fill-rule="evenodd" d="M9.313 10.962a.358.358 0 1 0 0-.716.358.358 0 0 0 0 .716Zm0 .072a.43.43 0 1 0 0-.86.43.43 0 0 0 0 .86Z" clip-rule="evenodd"/><path fill="#000" d="M10.245 10.89a.645.645 0 1 1-1.29 0 .645.645 0 0 1 1.29 0Z"/><path fill="#000" fill-rule="evenodd" d="M9.6 11.463a.573.573 0 1 0 0-1.146.573.573 0 0 0 0 1.146Zm0 .072a.645.645 0 1 0 0-1.29.645.645 0 0 0 0 1.29Z" clip-rule="evenodd"/><path fill="#000" d="M9.743 11.857a.466.466 0 1 1-.93 0 .466.466 0 0 1 .93 0Z"/><path fill="#000" fill-rule="evenodd" d="M9.278 12.251a.394.394 0 1 0 0-.788.394.394 0 0 0 0 .788Zm0 .072a.466.466 0 1 0 0-.931.466.466 0 0 0 0 .93Z" clip-rule="evenodd"/><path fill="#000" d="M8.812 11.428a.394.394 0 1 1-.788 0 .394.394 0 0 1 .788 0Z"/><path fill="#000" fill-rule="evenodd" d="M8.418 11.75a.322.322 0 1 0 0-.645.322.322 0 0 0 0 .645Zm0 .072a.394.394 0 1 0 0-.788.394.394 0 0 0 0 .788Z" clip-rule="evenodd"/><path fill="#000" d="M8.884 12a.394.394 0 1 1-.788 0 .394.394 0 0 1 .788 0Z"/><path fill="#000" fill-rule="evenodd" d="M8.49 12.323a.322.322 0 1 0 0-.645.322.322 0 0 0 0 .645Zm0 .072a.394.394 0 1 0 0-.788.394.394 0 0 0 0 .788Z" clip-rule="evenodd"/><path fill="#000" d="M9.099 10.89a.358.358 0 1 1-.717 0 .358.358 0 0 1 .717 0Z"/><path fill="#000" fill-rule="evenodd" d="M8.74 11.177a.286.286 0 1 0 0-.573.286.286 0 0 0 0 .573Zm0 .072a.358.358 0 1 0 0-.717.358.358 0 0 0 0 .717Z" clip-rule="evenodd"/><path fill="#000" d="M7.38 10.353a.466.466 0 1 1-.932 0 .466.466 0 0 1 .932 0Z"/><path fill="#000" fill-rule="evenodd" d="M6.914 10.747a.394.394 0 1 0 0-.788.394.394 0 0 0 0 .788Zm0 .072a.466.466 0 1 0 0-.931.466.466 0 0 0 0 .93Z" clip-rule="evenodd"/><path fill="#000" d="M7.237 9.601a.501.501 0 1 1-1.003 0 .501.501 0 0 1 1.003 0Z"/><path fill="#000" fill-rule="evenodd" d="M6.735 10.031a.43.43 0 1 0 0-.86.43.43 0 0 0 0 .86Zm0 .072a.501.501 0 1 0 0-1.003.501.501 0 0 0 0 1.003Z" clip-rule="evenodd"/><path fill="#000" d="M8.74 9.279a.394.394 0 1 1-.787 0 .394.394 0 0 1 .788 0Z"/><path fill="#000" fill-rule="evenodd" d="M8.347 9.601a.322.322 0 1 0 0-.644.322.322 0 0 0 0 .644Zm0 .072a.394.394 0 1 0 0-.788.394.394 0 0 0 0 .788Z" clip-rule="evenodd"/><path fill="#000" d="M9.242 8.92a.394.394 0 1 1-.788 0 .394.394 0 0 1 .788 0Z"/><path fill="#000" fill-rule="evenodd" d="M8.848 9.243a.322.322 0 1 0 0-.644.322.322 0 0 0 0 .644Zm0 .072a.394.394 0 1 0 0-.788.394.394 0 0 0 0 .788Z" clip-rule="evenodd"/><path fill="#000" d="M7.523 11.893a.573.573 0 1 1-1.146 0 .573.573 0 0 1 1.146 0Z"/><path fill="#000" fill-rule="evenodd" d="M6.95 12.395a.501.501 0 1 0 0-1.003.501.501 0 0 0 0 1.003Zm0 .071a.573.573 0 1 0 0-1.146.573.573 0 0 0 0 1.146Z" clip-rule="evenodd"/><path fill="#000" d="M8.382 11.034a.501.501 0 1 1-1.002 0 .501.501 0 0 1 1.002 0Z"/><path fill="#000" fill-rule="evenodd" d="M7.881 11.463a.43.43 0 1 0 0-.859.43.43 0 0 0 0 .86Zm0 .072a.501.501 0 1 0 0-1.003.501.501 0 0 0 0 1.003Z" clip-rule="evenodd"/><path fill="#000" d="M8.812 13.11a.573.573 0 1 1-1.146 0 .573.573 0 0 1 1.146 0Z"/><path fill="#000" fill-rule="evenodd" d="M8.24 13.612a.501.501 0 1 0 0-1.003.501.501 0 0 0 0 1.003Zm0 .072a.573.573 0 1 0 0-1.146.573.573 0 0 0 0 1.146Z" clip-rule="evenodd"/><path fill="#000" d="M8.955 12.323a.573.573 0 1 1-1.146 0 .573.573 0 0 1 1.146 0Z"/><path fill="#000" fill-rule="evenodd" d="M8.382 12.824a.501.501 0 1 0 0-1.002.501.501 0 0 0 0 1.002Zm0 .072a.573.573 0 1 0 0-1.146.573.573 0 0 0 0 1.146Z" clip-rule="evenodd"/><path fill="#000" d="M7.523 13.684a.573.573 0 1 1-1.146 0 .573.573 0 0 1 1.146 0Z"/><path fill="#000" fill-rule="evenodd" d="M6.95 14.185a.501.501 0 1 0 0-1.003.501.501 0 0 0 0 1.003Zm0 .072a.573.573 0 1 0 0-1.146.573.573 0 0 0 0 1.146Z" clip-rule="evenodd"/><path fill="#000" d="M7.666 14.078a.394.394 0 1 1-.788 0 .394.394 0 0 1 .788 0Z"/><path fill="#000" fill-rule="evenodd" d="M7.272 14.4a.322.322 0 1 0 0-.645.322.322 0 0 0 0 .645Zm0 .072a.394.394 0 1 0 0-.788.394.394 0 0 0 0 .788Z" clip-rule="evenodd"/><path fill="#000" d="M7.308 14.507a.322.322 0 1 1-.644 0 .322.322 0 0 1 .644 0Z"/><path fill="#000" fill-rule="evenodd" d="M6.986 14.758a.25.25 0 1 0 0-.501.25.25 0 0 0 0 .501Zm0 .072a.322.322 0 1 0 0-.645.322.322 0 0 0 0 .645Z" clip-rule="evenodd"/><path fill="#000" d="M8.096 13.586a.322.322 0 1 1-.644-.02.322.322 0 0 1 .644.02Z"/><path fill="#000" fill-rule="evenodd" d="M7.766 13.827a.25.25 0 1 0 .015-.501.25.25 0 0 0-.015.5Zm-.002.071a.322.322 0 1 0 .02-.644.322.322 0 0 0-.02.644Z" clip-rule="evenodd"/><path fill="#000" d="M6.735 11.428a.394.394 0 1 1-.788 0 .394.394 0 0 1 .788 0Z"/><path fill="#000" fill-rule="evenodd" d="M6.341 11.75a.322.322 0 1 0 0-.645.322.322 0 0 0 0 .645Zm0 .072a.394.394 0 1 0 0-.788.394.394 0 0 0 0 .788Z" clip-rule="evenodd"/><path fill="#000" d="M7.022 10.711a.394.394 0 1 1-.788 0 .394.394 0 0 1 .788 0Z"/><path fill="#000" fill-rule="evenodd" d="M6.628 11.034a.322.322 0 1 0 0-.645.322.322 0 0 0 0 .645Zm0 .071a.394.394 0 1 0 0-.788.394.394 0 0 0 0 .788Z" clip-rule="evenodd"/><path fill="#000" d="M8.597 10.282a.394.394 0 1 1-.787 0 .394.394 0 0 1 .787 0Z"/><path fill="#000" fill-rule="evenodd" d="M8.203 10.604a.322.322 0 1 0 0-.645.322.322 0 0 0 0 .645Zm0 .072a.394.394 0 1 0 0-.788.394.394 0 0 0 0 .788Z" clip-rule="evenodd"/><path fill="#000" d="M8.168 9.995a.394.394 0 1 1-.788 0 .394.394 0 0 1 .788 0Z"/><path fill="#000" fill-rule="evenodd" d="M7.774 10.318a.322.322 0 1 0 0-.645.322.322 0 0 0 0 .645Zm0 .071a.394.394 0 1 0 0-.788.394.394 0 0 0 0 .788Z" clip-rule="evenodd"/><path fill="#000" d="M8.024 12.359a.394.394 0 1 1-.787 0 .394.394 0 0 1 .787 0Z"/><path fill="#000" fill-rule="evenodd" d="M7.63 12.681a.322.322 0 1 0 0-.645.322.322 0 0 0 0 .645Zm0 .072a.394.394 0 1 0 0-.788.394.394 0 0 0 0 .788Z" clip-rule="evenodd"/><path fill="#000" d="M6.592 12.144a.394.394 0 1 1-.788 0 .394.394 0 0 1 .788 0Z"/><path fill="#000" fill-rule="evenodd" d="M6.198 12.466a.322.322 0 1 0 0-.644.322.322 0 0 0 0 .644Zm0 .072a.394.394 0 1 0 0-.788.394.394 0 0 0 0 .788Z" clip-rule="evenodd"/><path fill="#000" d="M6.52 10.998a.25.25 0 1 1-.501 0 .25.25 0 0 1 .501 0Z"/><path fill="#000" fill-rule="evenodd" d="M6.27 11.177a.18.18 0 1 0 0-.358.18.18 0 0 0 0 .358Zm0 .072a.25.25 0 1 0 0-.502.25.25 0 0 0 0 .502Z" clip-rule="evenodd"/><path fill="#000" d="M6.663 9.136a.394.394 0 1 1-.787 0 .394.394 0 0 1 .787 0Z"/><path fill="#000" fill-rule="evenodd" d="M6.27 9.458a.322.322 0 1 0 0-.645.322.322 0 0 0 0 .645Zm0 .072a.394.394 0 1 0 0-.788.394.394 0 0 0 0 .788Z" clip-rule="evenodd"/><path fill="#000" d="M6.735 12.538a.287.287 0 1 1-.573 0 .287.287 0 0 1 .573 0Z"/><path fill="#000" fill-rule="evenodd" d="M6.449 12.753a.215.215 0 1 0 0-.43.215.215 0 0 0 0 .43Zm0 .071a.287.287 0 1 0 0-.573.287.287 0 0 0 0 .573Z" clip-rule="evenodd"/><path fill="#000" d="M7.022 13.04a.358.358 0 1 1-.717 0 .358.358 0 0 1 .717 0Z"/><path fill="#000" fill-rule="evenodd" d="M6.664 13.326a.287.287 0 1 0 0-.573.287.287 0 0 0 0 .573Zm0 .071a.358.358 0 1 0 0-.716.358.358 0 0 0 0 .716Z" clip-rule="evenodd"/><path fill="#000" d="M8.955 8.312a.43.43 0 1 1-.86 0 .43.43 0 0 1 .86 0Z"/><path fill="#000" fill-rule="evenodd" d="M8.526 8.67a.358.358 0 1 0 0-.716.358.358 0 0 0 0 .716Zm0 .072a.43.43 0 1 0 0-.86.43.43 0 0 0 0 .86Z" clip-rule="evenodd"/><path fill="#000" d="M10.46 8.384a.573.573 0 1 1-1.147 0 .573.573 0 0 1 1.146 0Z"/><path fill="#000" fill-rule="evenodd" d="M9.886 8.885a.501.501 0 1 0 0-1.002.501.501 0 0 0 0 1.002Zm0 .072a.573.573 0 1 0 0-1.146.573.573 0 0 0 0 1.146Z" clip-rule="evenodd"/><path fill="#000" d="M10.173 9.35a.537.537 0 1 1-1.074 0 .537.537 0 0 1 1.074 0Z"/><path fill="#000" fill-rule="evenodd" d="M9.636 9.816a.466.466 0 1 0 0-.93.466.466 0 0 0 0 .93Zm0 .072a.537.537 0 1 0 0-1.074.537.537 0 0 0 0 1.074ZM10.622 5.574a3.56 3.56 0 0 1-.068-1.21l.142.018c-.035.292-.038.746.065 1.157.088.35.248.653.518.81.038-.192.102-.413.204-.618.167-.333.444-.635.89-.677.398-.038.655.109.765.338.108.222.065.501-.092.707a1.509 1.509 0 0 1-1.655.455h-.001c-.006.042-.01.082-.013.117v.002c-.033.274.084.888.844 1.105a1.9 1.9 0 0 0 .021.006c.003-.116.016-.234.041-.347.074-.333.254-.648.573-.768.28-.104.524-.07.685.064.16.135.221.358.162.594-.11.44-.599.764-1.312.637.012.143.042.277.09.388.158.28.675.772 1.488.501 1.016-.339 1.151-1.693.272-2.235l.075-.122c.982.605.83 2.115-.302 2.493-.902.3-1.483-.253-1.66-.57l-.002-.004-.002-.003a1.454 1.454 0 0 1-.105-.48 2.29 2.29 0 0 1-.064-.017c-.843-.24-.985-.934-.946-1.257.003-.047.01-.101.018-.16-.347-.176-.535-.542-.63-.924Zm1.763 2.244c.68.134 1.091-.176 1.179-.526.048-.193-.005-.356-.116-.45-.11-.092-.296-.13-.542-.038-.254.095-.414.353-.483.664a1.655 1.655 0 0 0-.038.35Zm-.972-1.408a1.366 1.366 0 0 0 1.52-.397.55.55 0 0 0 .076-.56c-.077-.16-.268-.29-.622-.257-.378.036-.62.29-.776.6a2.367 2.367 0 0 0-.198.614Z" clip-rule="evenodd"/></svg>