<svg xmlns="http://www.w3.org/2000/svg" width="100" height="32" fill="none"><path stroke="#fff" stroke-width=".359" d="M33.463 5.047c-.789.18-2.036-.538-1.83-1.902.18-1.184 1.543-1.793 2.117-1.758 1.04-.179 2.685 1.005 2.942 2.332.444 2.296-.61 3.277-1.22 3.121"/><path stroke="#fff" stroke-width=".359" d="M33.105 3.504c.358-.442 1.47-.969 2.08.18.598 1.124-.384 2.204-1.184 2.547-.25.107-1.966.236-2.224-.108"/><path fill="#fff" d="M89.07 31.271c.9.243.931-.784.127-.696-.056.007-.114-.014-.14-.063-.068-.125-.048-.21.006-.265.114-.115.304-.086.46-.044.367.097.798.354.659.889-.172.66-.873.658-1.256.538-.682-.18-1.4-1.686-2.009-1.543-.595.14-.204.77.084.502.035-.032.09-.037.115.003.206.33-.206.62-.522.392-.646-.466-.143-1.435.646-1.363.682.036 1.076 1.256 1.83 1.65ZM92.612 31.24c-.9.242-.931-.785-.127-.697.056.006.114-.014.14-.063.068-.126.048-.21-.006-.265-.114-.115-.305-.086-.46-.044-.367.097-.798.354-.659.889.172.66.873.658 1.256.538.681-.18 1.399-1.686 2.009-1.543.595.14.204.77-.085.502-.034-.032-.09-.037-.115.003-.205.33.207.62.523.392.645-.466.143-1.435-.646-1.363-.682.036-1.076 1.256-1.83 1.65ZM48.602 17.28l-.015-.003c-.129-.02-.466.045-.81.182-.143.036-.43.33-1.148.36-.662.027-.8-.324-.789-.503.108-.538.774-.463 1.004-.395.605.178 1.209.25 1.743.356l.015.003ZM46.822 15.594h-.011c-.184.025-1.305.556-1.854.825-.574.251-.79-.108-.825-.251-.093-.37.318-.538.466-.538.178 0 1.411.023 2.213-.035l.011-.001Z"/><path stroke="#fff" stroke-width=".215" d="M39.992 17.782c.694-.55 3.157-1.112 7.498-.645 4.592.493 3.875-2.942 2.26-2.799m-7.139 3.121c.515-1.817 2.404-4.269 5.202-2.51 2.906 2.223-.574 4.95-1.758 3.3"/><path fill="#fff" d="M56.925 21.621c.316-.517-.227-.694-.538-.717a3.735 3.735 0 0 1-.287-.072c-.25-.108-.18-.287-.143-.359.065-.13.287-.215.538-.215.933 0 1.062-.467 1.076-.538.036-.18.18-.574-.323-.79-.25-.107-.191-.346-.036-.394.559-.172 1.04-.108 1.615-.61 1.112-1.148 1.184-.897 1.184-.718 0 .119-.538 1.411-.825 2.045-.287.976.215 1.076.681 1.04.359.037.384.525-.107.503-.79-.036-1.089.18-1.148.323-.479 1.112-1.5 3.616-1.758 4.735-.259 1.12.825.873 1.399.61.275-.18.832-.524.86-.466.03.057-.49.502-.753.717-1.148.754-1.757.646-2.188.503-.574-.216-.825-.682-.753-1.22.114-.86 1.112-3.731 1.507-4.377ZM34.037 20.365c.086-.143 1.567-.143 2.26-.107.467 0 .072.896.144 1.184.057.23.55-.192.79-.431.764-.562 2.431-1.464 2.977-.574.545.89-.18.992-.61.933-.933-.108-1.507-.108-2.224.215-1.36.612-2.428 2.882-2.763 4.126-.18.502.076.85.503 1.04.322.143.287.287.197.287H32.1c-.43 0-.347-.12-.251-.18.18-.071.61-.28.897-.538.358-.322 2.224-5.201 2.009-5.453-.216-.25-.825-.322-.718-.502Z"/><path fill="#fff" fill-rule="evenodd" d="M44.156 28.34c-.466.501-1.312 1.254-1.724 1.102-1.912-.709-4.314-5.366.213-9.006.118-.095.25-.182.385-.25 3.457-1.742 5.768 2.046-1.085 4.442a.255.255 0 0 0-.165.16c-.226.765-.325 3.331 2.321 3.43.062.003.097.076.055.121Zm-2.227-4.473c-.287-1.04 1.255-3.66 2.368-3.372 1.542.398-.897 3.515-2.368 3.372ZM29.696 19.899c-.67.048-2.332.595-3.623 2.404-1.614 2.26-1.112 3.766-.61 4.305.502.538 1.184.717 2.224.645 1.04-.071 2.117-.86 2.476-1.22l.045-.044c.427-.423 1.859-1.84 1.928-4.189-.072-.968-.574-1.959-2.44-1.901Zm-.574.681c-.717.216-2.21 1.73-2.583 3.767-.373 2.038.395 2.26.897 2.368.897.072 1.614-.359 2.404-1.794.574-1.004 1.022-2.493.897-3.372-.072-.502-.538-1.255-1.615-.968ZM80.195 19.901c-.67.048-2.331.596-3.623 2.404-1.614 2.26-1.112 3.767-.61 4.305.502.538 1.184.717 2.224.646 1.04-.072 2.117-.861 2.476-1.22l.045-.045c.427-.423 1.859-1.84 1.928-4.188-.072-.969-.574-1.96-2.44-1.902Zm-.573.682c-.718.215-2.21 1.73-2.584 3.767-.373 2.037.395 2.26.897 2.368.897.071 1.615-.36 2.404-1.794.574-1.005 1.022-2.494.897-3.372-.072-.503-.538-1.256-1.615-.969Z" clip-rule="evenodd"/><path fill="#fff" d="M15.024 17.567c-.13.323-1.077 1.423-1.65 1.866-1.005.717-1.83 1.393-3.875 1.506-1.938.108-3.11-1.22-3.66-2.045-1.506-2.044-1.598-5.672-.86-8.215.717-2.475 2.475-4.628 6.6-5.453 3.565-.713 10.285 1.626 13.238 3.05-1.399 1.793-2.654 1.578-2.941 2.188-.268.57.334.956.645.932-.885 1.244-2.705 3.796-2.905 4.054-.201.259-1.28.515-1.794.61-.646.395-.754 1.364-.323 1.507h.969c-2.296 4.793-3.23 8.502-2.978 9.794.682.538 1.794.359 1.794-1.579 0-2.331 2.248-6.696 3.48-8.61l7.067-.107c1.399-.287.933-1.4.18-1.4h-6.279c.345-1.262 3.611-5.022 5.202-6.744 1.854.777 6.135 1.65 8.287.215 2.298-1.531 1.268-3.647.538-4.412-1.55-1.378-2.152-.43-1.758.072 1.328 1.327 1.615 2.403.323 3.12-1.291.718-7.703-.86-12.843-2.977s-8.18-2.025-10.08-1.722c-4.952.79-8.54 4.09-8.54 10.224 0 6.135 4.198 8.826 6.35 9.005 2.153.18 5.035-2.033 6.1-3.336 1.47-1.938-.158-1.866-.287-1.543Z"/><path fill="#fff" d="M22.306 21.298c.258-.488-.395-.825-.753-.933-.115-.086-.048-.203 0-.25.717-.049 2.188-.101 2.332.07.143.173-.012.575-.108.754-.514 1.04-1.571 3.373-1.686 4.377-.144 1.256.072 1.112.502 1.327.345.173.311.335.251.395-.86-.012-2.726-.029-3.3 0-.574.029-.443-.084-.36-.143.61-.323.898-.646 1.185-.97.538-1.338 1.679-4.139 1.937-4.627ZM63.315 21.334c.258-.488-.395-.825-.754-.933-.114-.086-.047-.203 0-.25.718-.049 2.189-.101 2.332.07.144.173-.012.575-.107.754-.515 1.04-1.572 3.372-1.687 4.377-.143 1.256.072 1.112.503 1.327.344.173.31.335.25.395-.86-.012-2.726-.029-3.3 0-.574.029-.442-.084-.358-.144.61-.322.896-.645 1.183-.968.539-1.34 1.68-4.14 1.938-4.628ZM22.378 18.643c0-.66.526-.777.79-.789.171 0 .358.024.43.036.86.108.86.933.538 1.291-.235.26-.706.311-1.005.287-.227 0-.753-.25-.753-.825ZM63.386 18.68c0-.66.527-.778.79-.79.172 0 .358.024.43.036.861.108.861.933.538 1.291-.234.26-.705.311-1.004.287-.227 0-.754-.25-.754-.825ZM46.845 26.285c.516-.488 1.53-3.72 1.973-5.274 0-.359-.359-.359-.538-.538-.144-.143-.012-.227.071-.251l1.794.036c.12-.036.337-.015.251.358-.086.374.108.419.215.395.632-.603 1.483-.92 1.83-1.004 1.435-.373 2.577.412 2.727.86.25.754-.36 1.866-.754 2.26-.287.288-2.116 1.364-2.547 1.759-.968.753-.466 1.363-.215 1.435.42.12.681-.467 1.47-.754.632-.23 1.128-.125 1.292-.036.395.216-.323 1.04-.717 1.292-.43.251-1.313.56-2.117.359-.803-.201-.885-1.04-.825-1.435.036-.347.416-1.256 1.65-2.117s1.256-1.842 1.112-2.224c-.167-.395-.767-1.076-1.83-.646-1.327.538-2.152 2.368-2.762 3.982-.681 1.901-.25 1.758.216 2.045.373.23.155.287 0 .287h-3.05c-.502 0-.43-.18-.358-.215.215-.072.595-.086 1.112-.574ZM66.519 26.49c.516-.488 1.53-3.72 1.973-5.274 0-.358-.359-.358-.538-.538-.144-.143-.012-.227.072-.25l1.793.035c.12-.036.338-.014.252.359-.087.373.107.418.215.394.631-.602 1.483-.92 1.83-1.004 1.434-.373 2.576.412 2.726.86.251.754-.359 1.866-.753 2.26-.287.288-2.117 1.364-2.547 1.759-.97.753-.467 1.363-.216 1.435.421.12.682-.466 1.471-.753.632-.23 1.128-.126 1.292-.036.394.215-.323 1.04-.718 1.291-.43.251-1.313.56-2.117.359-.803-.201-.885-1.04-.825-1.435.036-.347.416-1.256 1.65-2.117 1.235-.86 1.256-1.841 1.113-2.224-.168-.395-.768-1.076-1.83-.646-1.327.538-2.152 2.368-2.762 3.982-.682 1.902-.251 1.758.215 2.045.373.23.155.287 0 .287h-3.05c-.502 0-.43-.18-.358-.215.215-.072.595-.086 1.112-.574Z"/><path stroke="#fff" stroke-width=".215" d="M36.405 20.437c.861-1.34 3.781-4.169 8-4.34 4.22-.173 4.293-2.656 3.803-3.875"/><path stroke="#fff" stroke-width=".143" d="M7.382 4.616c-.538-.215-1.112-1.184-.108-1.83.969-.573 1.722.467 1.04.933-.394.18-1.348.187-1.578-.789-.06-.466.036-1.4 1.184-1.543 1.005-.125 1.328.754.861 1.04-.251.108-1.126 0-.753-1.004.191-.31.768-.782 1.542-.18.775.604.586 1.424.395 1.759M3.185 10.428c-.646.251-1.737-.037-1.794-1.005-.07-1.183 1.148-1.492 1.83-1.22.502.202.645 1.149-.503 1.436-.61.107-1.937-.216-1.865-1.866.107-.753.86-1.327 1.614-1.076.502.167.464.837-.107.933-1.077.179-.861-1.005-.682-1.328.18-.43 1.399-1.112 2.404.359"/><path fill="#fff" d="M31.383 4.042c-.512.939.129 1.729.47 1.937a.414.414 0 0 1 .115.098c.079.104.075.096.052.116-.085.072-.152.172-.258.206-.102.032-.19.096-.451.19-1.117.406-.43 1.292-.718 1.112-.287-.179-.394-.61-.394-.86 0-.252.143-.539.681-.646.43-.086.323-.323.216-.43-.775-.517-.718-1.065-.575-1.328.108-.359 1.135-.897.861-.395ZM68.083 11.289c.086.287-.072.538-.252.682-.172.057-.19.167-.179.215.058.344.574.263.825.18.825-.36.43-1.472.144-1.723-.983-.86-2.189.072-2.332.215-.401.402-1.256 2.763 1.363 3.122 1.503.205 2.475-.467 2.87-1.256 1.148-2.64-.43-3.803-1.363-4.054-.49-.203-2.296-.359-3.516.323-1.618.904-1.973 2.619-1.83 3.874.395 2.476 3.193 4.09 5.202 3.947 3.121-.108 4.52-1.005 5.166-1.507.574-.395 3.193-3.48 3.516-3.91 3.014-3.373 4.3-4.134 6.027-4.736 1.543-.538 3.6-.466 4.449-.287 2.44.466 4.307 2.619 4.627 4.736.431 2.84-1.686 5.166-3.587 5.596-1.04.108-1.686-.143-2.045-.43-.258-.207-.717-1.077-.18-1.4.431-.258.802-.083.933.036.503.718-.355.993.036 1.112 1.292.395 1.902-.107 2.763-.932.86-.825 2.403-3.695-.216-6.314-2.095-2.095-5.106-1.782-6.35-1.364-2.546.503-6.008 4.664-6.923 5.992-1.83 2.654-4.018 3.611-4.198 3.695-1.076.502-2.69.717-4.484.646-1.577-.064-3.468-1.268-4.126-1.902-.18-.18-.323-.359-.394-.072-.144.574-1.435 1.615-2.153 1.615-.717 0-1.004-.18-1.22-.395-.215-.215-.179-.825.108-.968.265-.133.532-.06.61.071.108.18-.108.43.108.61.932.215 1.112-.79 1.04-1.399-.038-.32-.472-1.187-.359-2.942.144-2.224 1.423-3.504 2.045-3.946.742-.598 2.547-1.435 4.7-.897 2.204.551 2.726 2.332 2.834 2.834.215 1.866-.467 2.69-.825 3.157-.801 1.042-2.416 1.184-3.373 1.04-1.9-.179-2.506-1.472-2.547-2.116-.107-1.722.984-2.29 1.328-2.475.932-.503 2.945-.323 3.085 1.184.144 1.542-1.004 1.65-1.47 1.578-.517-.08-1.005-.646-.826-1.184.24-.718.86-.61.969-.251Z"/><path fill="#fff" d="M72.495 10.392c-.316-.43-.084-.753.072-.861.395-.18.86 0 .646.861-.172.689-1.34.957-1.902 1.005-2.654-.144-3.05-2.62-2.332-3.696-.344.517-1.387.455-1.865.36-2.239-.89-1.387-2.572-.682-3.301 1.077-1.005 2.655-.323 2.655.287 0 .43-.538 1.076-.933.645-.31-.338-.131-.765.072-.932-.646-.287-.969-.072-1.184.071-2.009 1.758.108 3.014 1.937 2.225 3.552-2.512 5.923.152 6.314 1.327.108.323.287.132.323 0a2.538 2.538 0 0 1 2.225-1.65c2.762-.108 2.26 2.547 1.83 2.762-.234.117-1.746 1.04-2.369.251-.538-.681.216-1.22.61-.968.316.2.227.657.144.86 2.045.324 1.758-2.726-.144-2.367-1.546.292-2.332 2.32-2.547 3.229-.79 3.551-2.655 4.5-4.34 4.843-4.105.832-6.1-1.4-5.992-2.834l.754-.252c-.345 2.813 3.348 2.799 5.237 2.44 2.899-.488 3.66-3.3 3.66-4.987-.18-3.264-2.87-3.372-4.09-2.941-3.014 1.65-.754 5.166 1.578 4.09.18-.083.467-.271.323-.467Z"/><circle cx="90.792" cy="30.841" r="1.04" fill="#fff"/><path stroke="#fff" stroke-width=".215" d="M90.648 20.832c.108 2.965.165 8.624-.036 8.968M92.585 20.796c-.717.753-1.004 6.099-1.004 8.969"/><path fill="#fff" d="M87.796 24.866c-.076.375.24.994.407 1.256-1.39-1.646-1.556 1.008-.722.396.057-.042.001-.14-.061-.175-.252-.143.09-.778.661-.052l.007.086-.157.014.03.341.237-.02c-.27.445-.372.32-.402.137-.01-.058-.078-.09-.115-.045-.288.35.163.765.582.074.05.16.031.191-.204.55.195.161.341.35.429.528.051-.155.243-.428.372-.528-.2-.108-.315-.431-.347-.58.722.883 1.136.237.78-.069-.084-.071-.171.029-.202.134-.061.215-.43-.023-.507-.236l.243-.021-.029-.328-.164.015-.01-.1c.695-1.2 1.432-.143.722-.052-.064.009-.1.086-.05.127.173.14.345.178.497.148.586-.113.506-1.171-.084-1.26-.485-.074-1.048.374-1.158.857-.044-.168.175-.877.211-1.282.022-.24-.208-.53-.416-.73a.187.187 0 0 0-.305.067c-.088.21-.193.494-.245.748ZM94.464 24.78c.067.375-.264.986-.438 1.245 1.43-1.611 1.53 1.046.712.414-.057-.044.002-.14.065-.175.255-.136-.07-.78-.66-.068l-.01.086.158.017-.04.341-.235-.026c.259.452.364.329.398.147.011-.058.08-.089.117-.042.278.358-.183.761-.584.06-.055.159-.036.19.19.554-.2.157-.35.341-.443.518a1.483 1.483 0 0 0-.358-.538c.203-.103.326-.423.362-.57-.745.864-1.142.207-.778-.09.085-.069.17.033.198.14.056.216.43-.013.513-.223l-.243-.028.037-.327.165.019.01-.1c-.663-1.216-1.426-.179-.719-.07.064.01.097.089.046.128-.176.135-.348.17-.5.136-.583-.128-.475-1.184.117-1.258.486-.061 1.038.4 1.135.886.048-.167-.152-.88-.178-1.287-.016-.241.221-.524.434-.719a.187.187 0 0 1 .303.075c.084.212.18.499.226.754Z"/><path stroke="#fff" stroke-width=".215" d="M98.576 18.82c1.507-1.648-.394-2.546-.717-1.04M93.088 18.285c1.327-1.471.179-3.121-.503-1.579M89.895 18.249c-.539-.682.215-1.866.896-.969"/><path stroke="#fff" stroke-width=".43" d="M91.33 15.164v3.085"/><path stroke="#fff" stroke-width=".215" d="M83.843 18.72c-1.076-1.4.287-2.225.646-1.077"/><path fill="#fff" d="M84.693 21.19c0 .21-.658-1.77-1.005-2.547l6.207-.466c.837.012 2.619.029 3.05 0 .43-.029 4.077.37 5.847.574l-1.328 2.511-4.986-.359h-1.83c-3.551.18-5.955.216-5.955.287Z"/><path stroke="#fff" stroke-width=".359" d="M84.764 21.047c1.077 1.901 2.031 7.168 1.974 8.861h8.25c.288-3.013 2.082-8.646 2.44-8.825"/><path stroke="#fff" stroke-width=".143" d="M84.513 6.446c.12-.43-.362-1.579-.968-1.292-.606.287-.108 1.328.753 1.04.419-.107 1.316-.59.933-1.434-.339-.746-1.157-.34-.915.222a.39.39 0 0 0 .145.17c.961.624 1.67-1.98-.486-1.11M90.863 7.773c1.203-.065.992-1.396.009-1.406-.213-.002-.408.152-.419.364-.03.615.822.884 1.594.181.296-.269.2-1.129-.424-1.133a.308.308 0 0 0-.287.177c-.218.507.595.96.969.394a.313.313 0 0 0 .044-.102c.235-1.037-1.852-1.469-2.31-.34"/><path stroke="#fff" stroke-width=".072" d="M9.248 5.728c-.204.251-.653 1.242-.538 2.189"/><path stroke="#fff" stroke-width=".072" d="M9.786 7.486c-.144-.478-.51-1.557-.682-1.758M8.387 6.195c-.08.182-.431.681-.27 1.506"/><circle cx="8.315" cy="8.06" r=".466" fill="#fff" stroke="#fff" stroke-width=".072"/><circle cx="8.53" cy="9.854" r=".323" fill="#fff" stroke="#fff" stroke-width=".072"/><circle cx="8.745" cy="9.423" r=".395" fill="#fff" stroke="#fff" stroke-width=".072"/><circle cx="9.104" cy="8.132" r=".395" fill="#fff" stroke="#fff" stroke-width=".072"/><circle cx="8.53" cy="7.917" r=".395" fill="#fff" stroke="#fff" stroke-width=".072"/><circle cx="8.028" cy="9.495" r=".395" fill="#fff" stroke="#fff" stroke-width=".072"/><circle cx="6.987" cy="9.603" r=".359" fill="#fff" stroke="#fff" stroke-width=".072"/><circle cx="7.49" cy="8.885" r=".359" fill="#fff" stroke="#fff" stroke-width=".072"/><circle cx="9.642" cy="8.311" r=".431" fill="#fff" stroke="#fff" stroke-width=".072"/><circle cx="8.996" cy="8.67" r=".287" fill="#fff" stroke="#fff" stroke-width=".072"/><circle cx="10.001" cy="7.809" r=".431" fill="#fff" stroke="#fff" stroke-width=".072"/><circle cx="10.216" cy="8.814" r=".431" fill="#fff" stroke="#fff" stroke-width=".072"/><circle cx="10.431" cy="8.311" r=".431" fill="#fff" stroke="#fff" stroke-width=".072"/><circle cx="10.862" cy="10.607" r=".431" fill="#fff" stroke="#fff" stroke-width=".072"/><circle cx="10.647" cy="10.32" r=".431" fill="#fff" stroke="#fff" stroke-width=".072"/><circle cx="6.916" cy="10.751" r=".287" fill="#fff" stroke="#fff" stroke-width=".072"/><circle cx="6.916" cy="11.397" r=".215" fill="#fff" stroke="#fff" stroke-width=".072"/><circle cx="6.7" cy="11.11" r=".143" fill="#fff" stroke="#fff" stroke-width=".072"/><circle cx="7.49" cy="9.388" r=".215" fill="#fff" stroke="#fff" stroke-width=".072"/><circle cx="7.705" cy="8.311" r=".215" fill="#fff" stroke="#fff" stroke-width=".072"/><circle cx="7.561" cy="10.033" r=".215" fill="#fff" stroke="#fff" stroke-width=".072"/><circle cx="7.777" cy="8.742" r=".215" fill="#fff" stroke="#fff" stroke-width=".072"/><circle cx="9.57" cy="10.823" r=".431" fill="#fff" stroke="#fff" stroke-width=".072"/><circle cx="10.252" cy="11.361" r=".395" fill="#fff" stroke="#fff" stroke-width=".072"/><circle cx="10.826" cy="11.217" r=".179" fill="#fff" stroke="#fff" stroke-width=".072"/><circle cx="10.109" cy="11.504" r=".395" fill="#fff" stroke="#fff" stroke-width=".072"/><circle cx="10.396" cy="11.791" r=".61" fill="#fff" stroke="#fff" stroke-width=".072"/><circle cx="10.073" cy="12.76" r=".431" fill="#fff" stroke="#fff" stroke-width=".072"/><circle cx="9.212" cy="12.329" r=".359" fill="#fff" stroke="#fff" stroke-width=".072"/><circle cx="9.283" cy="12.903" r=".359" fill="#fff" stroke="#fff" stroke-width=".072"/><circle cx="9.535" cy="11.791" r=".323" fill="#fff" stroke="#fff" stroke-width=".072"/><circle cx="7.705" cy="11.253" r=".431" fill="#fff" stroke="#fff" stroke-width=".072"/><circle cx="7.526" cy="10.5" r=".466" fill="#fff" stroke="#fff" stroke-width=".072"/><circle cx="9.14" cy="10.177" r=".359" fill="#fff" stroke="#fff" stroke-width=".072"/><circle cx="9.642" cy="9.818" r=".359" fill="#fff" stroke="#fff" stroke-width=".072"/><circle cx="7.741" cy="12.796" r=".538" fill="#fff" stroke="#fff" stroke-width=".072"/><circle cx="8.674" cy="11.935" r=".466" fill="#fff" stroke="#fff" stroke-width=".072"/><circle cx="9.032" cy="14.015" r=".538" fill="#fff" stroke="#fff" stroke-width=".072"/><circle cx="9.176" cy="13.226" r=".538" fill="#fff" stroke="#fff" stroke-width=".072"/><circle cx="7.741" cy="14.589" r=".538" fill="#fff" stroke="#fff" stroke-width=".072"/><circle cx="8.064" cy="14.984" r=".359" fill="#fff" stroke="#fff" stroke-width=".072"/><circle cx="7.777" cy="15.415" r=".287" fill="#fff" stroke="#fff" stroke-width=".072"/><circle cx="8.566" cy="14.482" r=".287" fill="#fff" stroke="#fff" stroke-width=".072" transform="rotate(1.688 8.566 14.482)"/><circle cx="7.131" cy="12.329" r=".359" fill="#fff" stroke="#fff" stroke-width=".072"/><circle cx="7.418" cy="11.612" r=".359" fill="#fff" stroke="#fff" stroke-width=".072"/><circle cx="8.996" cy="11.181" r=".359" fill="#fff" stroke="#fff" stroke-width=".072"/><circle cx="8.566" cy="10.894" r=".359" fill="#fff" stroke="#fff" stroke-width=".072"/><circle cx="8.422" cy="13.262" r=".359" fill="#fff" stroke="#fff" stroke-width=".072"/><circle cx="6.987" cy="13.047" r=".359" fill="#fff" stroke="#fff" stroke-width=".072"/><circle cx="7.059" cy="11.899" r=".215" fill="#fff" stroke="#fff" stroke-width=".072"/><circle cx="7.059" cy="10.033" r=".359" fill="#fff" stroke="#fff" stroke-width=".072"/><circle cx="7.239" cy="13.441" r=".251" fill="#fff" stroke="#fff" stroke-width=".072"/><circle cx="7.454" cy="13.944" r=".323" fill="#fff" stroke="#fff" stroke-width=".072"/><circle cx="9.319" cy="9.208" r=".395" fill="#fff" stroke="#fff" stroke-width=".072"/><circle cx="10.683" cy="9.28" r=".538" fill="#fff" stroke="#fff" stroke-width=".072"/><circle cx="10.431" cy="10.248" r=".502" fill="#fff" stroke="#fff" stroke-width=".072"/><path stroke="#fff" stroke-width=".143" d="M11.423 5.262c-.072.598-.014 1.858.79 2.117a1.44 1.44 0 0 0 1.578-.43c.287-.378.143-1.005-.61-.934-.825.079-1.04 1.112-1.076 1.543-.036.299.093.954.896 1.184.804.23 1.328-.108 1.435-.538.108-.43-.227-.771-.753-.574-.574.215-.682 1.148-.466 1.65.167.299.717.825 1.578.538 1.076-.359 1.22-1.794.287-2.368"/></svg>
